<?xml version="1.0" encoding="UTF-8" standalone="no"?>
<!DOCTYPE svg PUBLIC "-//W3C//DTD SVG 1.1//EN" "http://www.w3.org/Graphics/SVG/1.1/DTD/svg11.dtd">
<svg width="100%" height="100%" viewBox="0 0 295 43" version="1.1" xmlns="http://www.w3.org/2000/svg"
    xmlns:xlink="http://www.w3.org/1999/xlink" xml:space="preserve" xmlns:serif="http://www.serif.com/"
    style="fill-rule:evenodd;clip-rule:evenodd;stroke-linejoin:round;stroke-miterlimit:2;">
    <g class="part-primary">
        <g transform="matrix(1,0,0,1,-188.542,-83.593)">
            <path
                d="M350.326,95.185L356.43,95.185L356.43,125.425L349.99,125.425L349.318,122.737C346.555,125.126 343.289,126.321 339.518,126.321C334.963,126.321 331.183,124.8 328.178,121.757C325.173,118.714 323.67,114.897 323.67,110.305C323.67,105.75 325.173,101.961 328.178,98.937C331.183,95.913 334.963,94.401 339.518,94.401C343.363,94.401 346.667,95.633 349.43,98.097L350.326,95.185ZM334.282,116.241C335.831,117.809 337.791,118.593 340.162,118.593C342.533,118.593 344.502,117.809 346.07,116.241C347.638,114.673 348.422,112.694 348.422,110.305C348.422,107.916 347.638,105.937 346.07,104.369C344.502,102.801 342.542,102.017 340.19,102.017C338.622,102.017 337.213,102.381 335.962,103.109C334.711,103.837 333.731,104.826 333.022,106.077C332.313,107.328 331.958,108.737 331.958,110.305C331.958,112.694 332.733,114.673 334.282,116.241Z" />
        </g>
        <g transform="matrix(1,0,0,1,-188.542,-83.593)">
            <path
                d="M383.058,118.201L386.754,118.201L386.754,125.481L380.986,125.481C378.783,125.481 376.87,125.052 375.246,124.193C373.622,123.334 372.381,122.093 371.522,120.469C370.663,118.845 370.234,116.913 370.234,114.673L370.234,101.793L364.746,101.793L364.746,100.057L376.73,87.345L378.242,87.345L378.242,95.241L386.586,95.241L386.586,101.793L378.41,101.793L378.41,113.609C378.41,115.065 378.811,116.194 379.614,116.997C380.417,117.8 381.565,118.201 383.058,118.201Z" />
        </g>
        <g transform="matrix(1,0,0,1,-188.542,-83.593)">
            <path
                d="M396.358,91.209L396.358,83.593L404.534,83.593L404.534,91.209L396.358,91.209ZM396.358,125.481L396.358,95.241L404.534,95.241L404.534,125.481L396.358,125.481Z" />
        </g>
        <g transform="matrix(1,0,0,1,-188.542,-83.593)">
            <path
                d="M436.202,95.241L444.714,95.241L432.674,125.481L425.114,125.481L412.85,95.241L421.53,95.241L428.978,115.513L436.202,95.241Z" />
        </g>
        <g transform="matrix(1,0,0,1,-188.542,-83.593)">
            <path
                d="M476.662,95.185L482.766,95.185L482.766,125.425L476.326,125.425L475.654,122.737C472.891,125.126 469.625,126.321 465.854,126.321C461.299,126.321 457.519,124.8 454.514,121.757C451.509,118.714 450.006,114.897 450.006,110.305C450.006,105.75 451.509,101.961 454.514,98.937C457.519,95.913 461.299,94.401 465.854,94.401C469.699,94.401 473.003,95.633 475.766,98.097L476.662,95.185ZM460.618,116.241C462.167,117.809 464.127,118.593 466.498,118.593C468.869,118.593 470.838,117.809 472.406,116.241C473.974,114.673 474.758,112.694 474.758,110.305C474.758,107.916 473.974,105.937 472.406,104.369C470.838,102.801 468.878,102.017 466.526,102.017C464.958,102.017 463.549,102.381 462.298,103.109C461.047,103.837 460.067,104.826 459.358,106.077C458.649,107.328 458.294,108.737 458.294,110.305C458.294,112.694 459.069,114.673 460.618,116.241Z" />
        </g>
    </g>
    <g class="part-secondary">
        <g transform="matrix(1,0,0,1,-188.542,-83.593)">
            <path
                d="M218.838,86.281L218.838,94.177L207.918,94.177L207.918,125.481L199.406,125.481L199.406,94.177L188.542,94.177L188.542,86.281L218.838,86.281Z" />
        </g>
        <g transform="matrix(1,0,0,1,-188.542,-83.593)">
            <path
                d="M253.138,110.249C253.138,111.033 253.082,111.836 252.97,112.657L230.122,112.657C230.458,114.71 231.27,116.288 232.558,117.389C233.846,118.49 235.498,119.041 237.514,119.041C238.895,119.041 240.146,118.733 241.266,118.117C242.386,117.501 243.263,116.652 243.898,115.569L252.522,115.569C251.402,118.854 249.498,121.468 246.81,123.409C244.122,125.35 241.023,126.321 237.514,126.321C233.034,126.321 229.301,124.79 226.314,121.729C223.327,118.668 221.834,114.878 221.834,110.361C221.834,108.569 222.086,106.852 222.59,105.209C223.094,103.566 223.822,102.092 224.774,100.785C225.726,99.478 226.837,98.349 228.106,97.397C229.375,96.445 230.813,95.708 232.418,95.185C234.023,94.662 235.722,94.401 237.514,94.401C240.538,94.401 243.254,95.11 245.662,96.529C248.07,97.948 249.918,99.87 251.206,102.297C252.494,104.724 253.138,107.374 253.138,110.249ZM237.514,101.345C235.685,101.345 234.145,101.849 232.894,102.857C231.643,103.865 230.794,105.265 230.346,107.057L244.962,107.057C244.589,105.825 244.047,104.789 243.338,103.949C242.629,103.109 241.779,102.465 240.79,102.017C239.801,101.569 238.709,101.345 237.514,101.345Z" />
        </g>
        <g transform="matrix(1,0,0,1,-188.542,-83.593)">
            <path
                d="M262.966,91.209L262.966,83.593L271.142,83.593L271.142,91.209L262.966,91.209ZM262.966,125.481L262.966,95.241L271.142,95.241L271.142,125.481L262.966,125.481Z" />
        </g>
        <g transform="matrix(1,0,0,1,-188.542,-83.593)">
            <path
                d="M307.682,95.185L313.786,95.185L313.786,125.425L307.346,125.425L306.674,122.737C303.911,125.126 300.645,126.321 296.874,126.321C292.319,126.321 288.539,124.8 285.534,121.757C282.529,118.714 281.026,114.897 281.026,110.305C281.026,105.75 282.529,101.961 285.534,98.937C288.539,95.913 292.319,94.401 296.874,94.401C300.719,94.401 304.023,95.633 306.786,98.097L307.682,95.185ZM291.638,116.241C293.187,117.809 295.147,118.593 297.518,118.593C299.889,118.593 301.858,117.809 303.426,116.241C304.994,114.673 305.778,112.694 305.778,110.305C305.778,107.916 304.994,105.937 303.426,104.369C301.858,102.801 299.898,102.017 297.546,102.017C295.978,102.017 294.569,102.381 293.318,103.109C292.067,103.837 291.087,104.826 290.378,106.077C289.669,107.328 289.314,108.737 289.314,110.305C289.314,112.694 290.089,114.673 291.638,116.241Z" />
        </g>
    </g>
</svg>