<?xml version="1.0" encoding="UTF-8"?>
<svg id="a" data-name="Layer 1" xmlns="http://www.w3.org/2000/svg" viewBox="0 0 1248.12 687.86">
  <defs>
    <style>
      .b {
        stroke-width: 0px;
      }
    </style>
  </defs>
  <path class="b" d="M375.3,423.53c-28.18,17.65-60.26,25.85-91.78,26.44-22.99.43-45.56-2.81-66.74-11.22-16.2-6.43-32.72-17.1-46.3-28.38-23.64-19.66-40.97-44.49-50.92-75.84-8.47-22.01-12.45-45.18-12.5-68.71.07-86.24-.29-259.17-.29-259.17h53.89l-.35,143.35s30.18-34.27,81.21-46.19c21.06-4.92,47.59-7.82,71.8-4.51,12.1,1.65,24.12,4.76,34.65,8.66,12.14,4.49,22.46,10.03,31.13,15.59,80.35-48.71,191.81-24.49,239.25,58.3,22.21-34.91,54.95-59.56,90.98-73.2,70.24-26.58,159.73-5.36,208.64,73.2,77.09-130.2,290.36-103.48,321.86,58.49.92,4.74,3.03,14.56,4.15,29.99,1.22,16.77.12,27.36-.08,88.22-.09,29.63-.26,55.26-.41,85.11,0,.02,0,.03,0,.03l-55.55.36s.63-123.86-.6-174.35c-1.3-53.04-42.87-99-98.92-112.04-65.39-15.21-127.29,32.68-139.98,97.3-3.42,21.89-3.96,189.6-3.96,189.6h-54.16s.36-118.45-1.03-177.2c-.37-18.78-6.06-36.32-15.8-52.34-38.11-62.68-124-84.8-182.37-31.05-23.33,21.48-42.81,49.99-42.96,82.6-.7,58.65-2.88,177.38-2.88,177.38l-53.59.38v-45.6s-12.12,13.52-32.04,25.82c-14.83,9.15-34.62,17.11-53.61,21.06-55.25,11.49-98-2.33-130.74-22.07ZM359.09,220.96c-11.52,22.82-14.4,46.49-11.83,68.58,3.39,29.19,16.85,55.73,37.88,75.09,18.23,16.78,41.81,26.97,66.88,29.92,18.56,2.18,37.93.84,56.66-7.09,33.98-12.95,55.4-34.52,67.66-59.08,5.93-11.88,9.33-23.82,11.35-36.38,1.89-11.78,2.65-24.16.54-36.11-5.75-32.58-24.63-62.52-52.38-81.65-23.5-16.2-54.84-24.97-88.9-18.87-8.53,1.53-15.86,4.33-24.89,7.79,42.58,57.88,49.9,137.86,12.86,200.14-18.78-7.22-33.15-18.18-42.19-35.25,8.93-17.97,12.03-38.44,11.96-55.88-.26-67.59-59.46-122.53-125.14-119.13-21.2,1.1-43.92,7.4-64.44,22.45-20.1,13.91-32.93,30.49-41.28,48.53-13.09,28.3-14.54,61.2-4.79,89.31,6.06,17.48,16.7,32.72,29.54,45.95,31.75,32.7,80.66,48.82,134.09,24.66-44.18-56.08-51.07-134.28-16.3-196.78,18.83,6.04,33.47,16.41,42.71,33.79Z"/>
  <path class="b" d="M8.96,98.78h50.08v345.75H8.96V98.78Z"/>
  <circle class="b" cx="33.65" cy="33.65" r="33.65"/>
  <path class="b" d="M184.42,613.44c3.85-3.7,8.17-6.51,13.62-7.12,12.32-1.38,22.58,5.75,23.75,18.41,1.12,12.15.24,24.49.24,37.11h-9.63c-.19-1.71-.54-3.46-.55-5.21-.07-9.53.09-19.07-.13-28.59-.16-7.11-4.66-11.4-11.27-11.32-5.34.06-9.45,3.32-10.48,8.56-.44,2.25-.58,4.58-.6,6.87-.07,7.99-.01,15.99-.04,23.98,0,1.81-.18,3.61-.29,5.73h-9.73c-.18-2.11-.48-4.04-.49-5.98-.08-9.38.08-18.76-.16-28.13-.17-6.68-4.41-10.84-10.58-11.03-6.71-.21-11.31,4.03-11.45,11.04-.19,9.37-.03,18.76-.1,28.13-.01,1.94-.33,3.87-.52,6.03h-9.39c-.2-1-.58-2-.58-3.01-.03-10.61-.3-21.23.08-31.82.58-16.19,16.22-25.74,30.57-18.84,2.59,1.24,4.83,3.21,7.74,5.18Z"/>
  <path class="b" d="M814.39,662.37h-10.74l-.05-33.44s-.02-4.46-1.59-7.15c-1.7-2.9-5.06-4.69-8.06-5-3.02-.31-7.39.83-9.45,3.05-2.82,3.04-2.81,7.52-2.81,7.52l-.06,35.02-11.25-.14v-32.41s-.04-7.46,3.18-13.71c2.16-4.2,6.82-7.54,10.09-8.86,3.19-1.29,9.67-2.01,13.98-.89,6.97,1.81,11.32,7.18,11.32,7.18,0,0,3.8-4.74,8.99-6.67s12.14-1.14,16.48.58c3.46,1.37,7.44,4.07,9.61,8.04,3.07,5.61,3.62,13.13,3.62,13.13v33.75h-10.94s.14-24.66-.1-34.34c-.19-7.3-4.91-11.6-11.74-11.3-4.75.2-8.6,3.06-9.8,7.65-.57,2.2-.6,4.04-.6,4.04l-.08,33.95Z"/>
  <path class="b" d="M1176.67,482.77c.1,1.68.24,2.89.24,4.1.01,15.37.18,30.75-.1,46.12-.09,4.84-.64,9.94-2.32,14.42-4.64,12.31-17.19,18.83-30.63,16.69-12.26-1.96-21.65-12.26-22.78-25-1.67-18.7,11.51-33.4,29.16-32.41,4.62.26,9.13,1.15,13.25,4.06v10.95c-1.84-.93-3.14-1.57-4.44-2.24-8.4-4.29-17.22-2.92-22.69,3.53-5.41,6.38-5.88,17.22-.97,24.13,4.33,6.1,10.44,7.85,17.48,6.52,6.55-1.24,10.5-5.57,12.24-11.8.73-2.62.94-5.46.96-8.2.09-15.07.04-30.13.06-45.2,0-1.8.15-3.6.25-5.68h10.3Z"/>
  <path class="b" d="M530.32,482.69h9.66c.22,2.07.58,3.99.59,5.9.05,14.76.02,29.51.04,44.27,0,2.15-.01,4.32.26,6.44,1.09,8.29,7.12,14.04,15.25,14.68,8.57.67,15.51-3.94,17.54-12.34.84-3.48,1.08-7.4.43-10.91-2.11-11.43-13.9-16.86-25.16-11.93-1.78.78-3.51,1.66-5.7,2.71v-11.15c9.34-4.65,18.65-5.41,27.85-.25,9.67,5.43,14.42,14.06,14.52,25.05.1,11.49-4.33,20.88-14.84,26.18-10.11,5.1-20.32,4.3-29.67-2.27-6.63-4.66-10.72-11.26-10.92-19.4-.44-17.82-.38-35.65-.49-53.47,0-1.03.36-2.06.64-3.5Z"/>
  <path class="b" d="M117.02,610.26v10.9c-1.74-.91-3.02-1.59-4.31-2.24-8.03-4.08-16.7-2.85-22,3.11-5.49,6.17-6.12,17.24-1.36,24.08,3.96,5.7,10.83,8.15,17.9,6.38,6.42-1.6,11.16-7.14,12.04-14.2.23-1.82.2-3.68.21-5.52.02-14.75,0-29.51.02-44.26,0-1.79.19-3.58.31-5.7h9.88c.17,1.43.41,2.47.41,3.51,0,16.9.16,33.81-.12,50.71-.21,12.77-8.89,22.88-21.25,25.61-12.25,2.7-24.39-2.73-30.16-13.5-6.19-11.55-4.02-26.32,5.18-35.34,8.54-8.37,22.11-9.93,33.24-3.53Z"/>
  <path class="b" d="M1106.28,659.25v-11.89c1.97,1,3.87,2.7,5.34,3.41,8.09,3.92,16.68,2.46,21.87-3.72,5.43-6.45,5.78-17.36.72-24.07-4.24-5.62-10.01-7.38-16.75-6.19-6.61,1.17-10.55,5.45-12.35,11.65-.76,2.61-.94,5.46-.96,8.2-.09,14.45-.04,49.64-.04,49.64h-11.08s.34-35.17.49-50.55c.03-3.35.44-6.79,1.31-10.01,3.52-13.06,15.56-20.81,29.69-19.38,13.05,1.32,23.09,11.93,23.86,25.2.92,15.94-7.39,28.04-21.57,30.99-6.98,1.45-14.18.51-20.53-3.28Z"/>
  <path class="b" d="M848.48,536.43c8.72-4.93,17.1-9.67,25.5-14.42-3.35-4.91-10.08-6.52-16.23-4.18-7.29,2.77-12.06,11.06-11.16,19.39.93,8.57,6.97,15.47,14.39,16.44,9.61,1.27,14.8-2.93,20.23-16.79,3.08.4,6.33.81,9.48,1.22,1.18,11.29-9.91,24.18-22.01,26.07-15.19,2.38-29.25-7.09-32.62-21.95-3.37-14.88,5.16-30.32,19.23-34.54,15.82-4.74,29.63,4.36,34.11,16.92-11.91,6.6-23.91,13.26-36.28,20.13-1.66-2.97-3.05-5.45-4.65-8.3Z"/>
  <path class="b" d="M1210.4,544.74c-1.64-2.92-2.98-5.29-4.66-8.27,8.66-4.91,17.13-9.71,25.63-14.53-3.81-5.01-10.74-6.48-16.85-3.9-7.2,3.04-11.74,11.52-10.58,19.73,1.19,8.42,7.16,14.99,14.43,15.9,9.52,1.19,14.36-2.76,20.17-16.82,3.11.41,6.36.85,9.53,1.27.78,11.86-10.48,24.58-22.66,26.11-15.44,1.94-29.26-7.75-32.19-22.56-2.99-15.15,5.74-30.19,19.9-34.14,16.76-4.68,29.94,5.97,33.51,17.08-11.81,6.56-23.71,13.18-36.23,20.14Z"/>
  <path class="b" d="M699.4,563.13h-10.07c-.11-1.86-.28-3.49-.29-5.13-.04-8,.14-16-.08-23.99-.31-11.04-8.3-18.06-19.11-16.86-2.22.25-4.54,1.02-6.48,2.15-7.83,4.54-10.63,15.97-6.33,24.97,3.92,8.2,12.94,11.8,21.85,8.61,2.42-.87,4.69-2.13,7.85-3.59,0,2.28,0,4.04,0,5.79s0,3.36,0,4.84c-15.66,11.02-38.95.83-41.92-18.27-.74-4.75-.64-9.93.45-14.59,3.16-13.64,15.75-21.92,29.9-20.37,13.73,1.5,23.99,12.34,24.47,26.23.3,8.76.17,17.53.19,26.29,0,1.19-.26,2.39-.44,3.93Z"/>
  <path class="b" d="M533.26,648.26v10.57c-11.33,8.16-29.06,4.66-37-7.64-6.44-9.97-6.78-20.65-1.33-31.13,5.55-10.67,17.45-15.84,29.34-13.37,12.19,2.54,20.9,11.67,21.74,24.23.68,10.09.14,20.26.14,30.83h-10.47c0-3.23,0-6.4,0-9.58,0-6.3.19-12.62-.08-18.91-.5-11.48-9.24-18.55-20.19-16.41-2.05.4-4.15,1.28-5.88,2.45-7.25,4.91-9.55,16.03-5.24,24.48,4,7.84,12.92,11.13,21.69,7.9,2.27-.84,4.41-2.05,7.28-3.42Z"/>
  <path class="b" d="M1213.95,661.89h-9.92c0-5.93.07-11.58-.02-17.22-.08-4.75.14-9.59-.64-14.24-1.53-9.21-8.47-14.6-17.11-13.99-8.85.62-15.2,7.13-15.74,16.29-.43,7.22,1.64,13.53,7.98,17.56,6.32,4.02,12.87,3.26,19.27-.17,1.04-.56,2.1-1.06,3.64-1.82v10.86c-6.65,4.23-14.07,4.97-21.78,2.96-10.87-2.83-18.95-12.8-19.82-24.09-1.06-13.72,4.91-24.82,15.89-29.6,10.73-4.66,23.51-2.1,31.47,6.29,4.42,4.66,6.97,10.26,7.2,16.58.35,9.68.18,19.37.2,29.06,0,.42-.32.83-.61,1.54Z"/>
  <path class="b" d="M48.62,648.2v10.64c-11.13,8.04-33.94,5.96-40.69-15.19-1.96-6.14-1.8-12.45.09-18.64,3.77-12.29,14.97-19.63,28.45-18.73,12.72.85,23.23,10.11,24.54,23.43,1.03,10.48.21,21.13.21,32.1h-10.25c0-4.94,0-9.66,0-14.39,0-4.61.15-9.23-.05-13.84-.49-11.74-9.28-18.96-20.39-16.7-2.05.42-4.14,1.32-5.86,2.51-7.2,4.97-9.4,16.11-5.02,24.53,4.06,7.8,13,11.01,21.77,7.7,2.26-.85,4.38-2.07,7.2-3.43Z"/>
  <path class="b" d="M415.49,564.34c-15.55-.03-27.92-12.75-28.01-28.8-.09-16,12.72-29.1,28.37-29.02,15.51.08,27.96,12.96,27.96,28.91,0,16.3-12.39,28.94-28.32,28.9ZM432.45,535.22c-.04-8.92-5.81-16.59-13.53-17.99-8.1-1.46-15.63,2.8-18.82,10.65-5.2,12.78,3.84,26.68,16.83,25.87,8.84-.55,15.56-8.57,15.52-18.53Z"/>
  <path class="b" d="M1008.95,564.34c-15.48-.02-28.03-12.86-28.11-28.76-.08-15.94,12.81-29.13,28.39-29.06,15.52.07,27.99,12.91,28.04,28.88.05,16.18-12.46,28.97-28.32,28.94ZM992.2,534.98c-.09,8.71,5.13,16.32,12.59,18.35,7.15,1.95,14.42-1.17,18.51-7.93,4.07-6.73,3.5-15.93-1.37-22.08-4.51-5.7-11.54-7.84-18.14-5.53-6.87,2.4-11.51,9.29-11.59,17.19Z"/>
  <path class="b" d="M663.43,662.27h-11.23s.38-22.03-.04-29.85c-.6-11.18-9.52-17.83-20.38-15.51-1.76.38-3.55,1.12-5.07,2.09-7.52,4.8-10.03,16.11-5.63,24.76,2.14,4.2,6.8,9.12,15.57,8.83,7.54-.26,12.52-4.79,13.8-5.39,0,3.91.1,8.41.1,11.69-13.72,9.23-38.12,3.27-41.79-18.7-.74-4.43-.52-9.29.49-13.68,3.09-13.5,15.55-22.05,29.76-20.65,13.06,1.28,23.37,12.67,24.11,26,.48,8.74.31,30.41.31,30.41Z"/>
  <path class="b" d="M703.75,663.12c-15.14-.1-27.26-12.71-27.3-28.41-.05-15.69,12.46-28.52,27.78-28.49,15.47.03,27.74,12.64,27.71,28.5-.03,16.12-12.32,28.51-28.18,28.4ZM687.55,634.48c-.03,9.29,6.3,17.22,14.45,18.1,8.57.92,16.17-4.44,18.22-12.85,2.35-9.61-2.38-19.51-10.71-22.43-10.9-3.83-21.91,4.79-21.96,17.19Z"/>
  <path class="b" d="M755.88,507.18v10.15c-2.05.21-3.84.52-5.64.54-5.69.07-11.38.04-17.08.04-2.67,0-4.91.61-5.73,4.65,1.26,1.11,2.68,2.92,4.54,3.89,3.26,1.7,6.83,2.78,10.17,4.33,3.62,1.68,7.25,3.39,10.65,5.46,5.4,3.29,6.7,8.5,5.94,14.43-.7,5.48-4.06,8.78-9.01,10.67-1.29.49-2.64,1.01-3.99,1.08-9.47.5-18.94.9-28.79,1.34v-10.03c1.54-.25,3.25-.75,4.98-.78,6.46-.11,12.92-.03,19.38-.11,3.14-.04,5.81-.92,6.46-4.5-.35-3.17-2.7-4.43-5.11-5.49-4.08-1.79-8.29-3.3-12.32-5.2-3.04-1.43-6.18-2.92-8.77-5.01-8.2-6.62-6.13-19.4,3.62-23.37.99-.4,2.04-.87,3.08-.92,9.01-.44,18.02-.79,27.61-1.19Z"/>
  <path class="b" d="M102.51,563.38v-9.81c2.03-.24,3.79-.6,5.56-.62,5.68-.08,11.37.01,17.05-.06,1.67-.02,3.44-.05,5-.58,3.72-1.26,4.44-5.13,1.33-7.5-1.92-1.46-4.26-2.41-6.48-3.43-4.88-2.24-9.97-4.07-14.68-6.62-6.66-3.61-9.02-8.98-7.53-16.21,1.34-6.48,6.04-9.83,12.1-10.21,8.81-.56,17.68-.14,26.84-.14v8.81c-1.44.27-3.14.83-4.85.86-5.53.12-11.06.03-16.59.06-1.22,0-2.5-.05-3.66.25-3.44.89-4.38,4.37-1.64,6.62,1.62,1.33,3.71,2.12,5.65,3.02,5.7,2.65,11.57,4.97,17.1,7.94,5.59,3.01,7.68,8.18,6.89,14.42-.78,6.19-4.49,10.07-10.4,11.52-3.84.94-7.84,1.47-11.8,1.64-6.41.26-12.83.07-19.9.07Z"/>
  <path class="b" d="M280.27,507.88h10.43c0,1.99,0,3.63,0,5.28,0,8.92-.11,17.83.04,26.75.15,8.88,5.97,14.41,14.26,13.85,6.89-.46,11.62-5.92,11.78-14.02.17-8.6.05-17.22.05-25.82,0-1.83,0-3.66,0-5.93h10.18c.16,1.57.44,3.02.44,4.48.04,8.76.1,17.52-.03,26.28-.04,2.74-.37,5.54-1.01,8.2-2.64,11.04-11.16,17.42-22.94,17.39-11.4-.03-19.81-6.53-22.49-17.39-.29-1.19-.69-2.41-.7-3.61-.05-11.65-.03-23.31-.03-35.45Z"/>
  <path class="b" d="M85.54,563.17h-10.32c-.15-1.78-.41-3.53-.42-5.29-.05-7.99,0-15.98-.04-23.97,0-1.84-.09-3.69-.39-5.5-1.21-7.3-6.31-11.55-13.37-11.25-6.71.28-11.91,5.39-12.17,12.63-.3,8.29-.11,16.59-.13,24.89,0,2.72,0,5.43,0,8.41h-10.17c-.17-1.07-.51-2.22-.51-3.38-.02-9.83-.19-19.67.1-29.5.51-16.99,14.48-27.25,30.81-22.71,9.29,2.59,14.53,9.26,15.73,18.5.97,7.42.7,15,.87,22.51.11,4.71.02,9.43.02,14.65Z"/>
  <path class="b" d="M899.19,607.14h11.28v31.23s-.41,7.95-3.86,14.22c-2.75,5-8.08,8.44-12.07,9.57-4.11,1.17-9.83,1.58-15.07.15-4.03-1.1-7.65-3.63-10.37-6.41-5.76-5.87-6.12-16.31-6.12-16.31v-32.46h11.04v32.63s.46,4.12,1.57,6.16c2.01,3.67,5.76,6.31,10.12,6.53,3.88.2,8.85-1.98,11.22-5.5,2.44-3.63,2.22-8.62,2.22-8.62l.03-31.2Z"/>
  <path class="b" d="M936.9,662.37h-11.01v-32.62s.02-4.19,1.5-8.65c1.02-3.07,2.91-6.06,5.3-8.68,5.66-6.21,16.12-7.98,23.93-5.81,3.71,1.03,8.84,3.84,11.45,7.83,2.25,3.44,3.76,7.49,4.48,10.57.69,2.95.65,4.99.65,4.99v32.38l-11.01-.27-.02-32.46s-.15-5.5-3.26-9.18c-2.21-2.61-6.78-3.82-9.91-3.72-7.02.21-12.02,5.31-12.21,12.97-.21,8.91.1,32.67.1,32.67Z"/>
  <path class="b" d="M569.6,685.12v-6c3.64.49,7.42,1.99,10.84,2.27,2.1.17,4.43.36,6.3-.37,1.34-.53,2.94-2.61,2.88-3.92-.07-1.35-.42-3.09-1.84-3.73-1.86-.84-5.72-.74-8.77-.59.51-3.6,1.68-7.58,2.21-11.37-9.16-3.07-16.87-7.8-20.08-17.46-2.1-6.34-2.35-12.87.07-19.15,5.09-13.15,15.57-19.36,36.26-17.66,0,2.75-.05,10.5-.05,10.5,0,0-4.1-.31-8.03.18-4.03.5-7.92,1.8-9.72,2.59-5.13,2.44-8.79,7.84-8.77,14.39.02,6.56,4.15,11.69,8.91,14.38,1.54.67,4.63,1.54,7.97,1.98,4.72.63,9.72.69,9.72.69l-.05,10.46s-6.69.15-10.52-.35c-.42,1.62-.75,2.87-1.16,4.47,1.83.28,3.49.35,4.63.62,5.27,1.24,7.38,4.48,7.9,9,.66,5.76-2.37,9.48-8.08,11-5.6,1.49-13.59.88-20.62-1.95ZM583.29,660.11h2.21l.41-2.19h-2.13l-.49,2.19Z"/>
  <path class="b" d="M355.89,661.94v-9.46c1.81-.21,3.57-.58,5.33-.6,5.53-.08,11.06-.02,16.59-.06,1.53-.01,3.26.21,4.54-.42,1.49-.73,3.23-2.08,3.64-3.51.33-1.16-.81-3.21-1.91-4.2-1.43-1.29-3.42-1.99-5.24-2.8-4.9-2.19-10.07-3.92-14.68-6.6-2.89-1.69-5.81-4.36-7.25-7.31-3.78-7.76.39-16.16,8.7-18.59,2.19-.64,4.52-1.04,6.79-1.08,6.9-.14,13.8-.05,20.7-.05,2.75,2.96,1.63,6.08,1.03,9.91-3.85,0-7.63,0-11.41,0-3.53,0-7.07-.06-10.6.08-2.54.1-4.91.73-5.62,3.73.38,3.39,3.09,4.37,5.59,5.52,6.26,2.89,12.77,5.34,18.75,8.72,5.99,3.38,7.79,9.28,6.09,15.91-.99,3.84-3.21,6.73-6.8,8.19-2.95,1.2-6.13,2.38-9.26,2.51-8.11.35-16.25.12-24.98.12Z"/>
  <path class="b" d="M267.26,661.92c-.27-1.04-.62-1.77-.62-2.49.1-11.06-.3-22.16.55-33.17.9-11.75,10.02-19.64,21.54-20.03,12.5-.42,22.38,6.5,23.71,18.47,1.28,11.55.71,23.3.89,34.97.01.69-.52,1.39-.88,2.28h-9.18c-.12-1.72-.31-3.34-.32-4.97-.03-7.99.05-15.99-.06-23.98-.03-2.44-.25-4.94-.87-7.29-1.49-5.73-6.32-9.12-12.37-9-5.7.11-10.44,3.67-11.79,9.2-.57,2.36-.74,4.86-.77,7.31-.09,7.84-.02,15.68-.06,23.52,0,1.64-.21,3.28-.34,5.17h-9.43Z"/>
  <path class="b" d="M172.3,493.49v13.87h16.36c.17,3.42.3,6.09.44,9-5.08,3.43-10.96.29-16.22,2.23,0,8.89-.4,17.76.16,26.58.3,4.67,3.95,6.99,9.14,7.57,2.1.24,4.2.43,6.51.66v9.64c-6.67.82-12.82.25-18.52-2.94-5.26-2.95-8.18-7.76-8.28-13.59-.27-17.37-.1-34.74-.1-52.31,3.31-2.17,6.67-1.25,10.5-.72Z"/>
  <path class="b" d="M247.27,493.51v13.9h16.14c.18,3.27.32,5.93.48,8.86-5,3.61-10.9.3-16.63,2.55,0,3.39,0,7.02,0,10.66,0,4.3-.13,8.61.06,12.9.28,6.45,3.61,9.77,10.04,10.4,1.95.19,3.9.4,6.11.63v9.61c-6.96.87-13.37.22-19.23-3.39-4.65-2.86-7.39-7.36-7.48-12.6-.3-17.64-.11-35.29-.11-53.53h10.61Z"/>
  <path class="b" d="M373.49,553.54v9.48c-6.28.86-12.12.26-17.63-2.45-5.76-2.83-9.03-7.85-9.16-13.97-.36-17.48-.13-34.98-.13-53.08h10.67v13.89h16.16v10.4h-15.89c-.13,2.97-.31,5.22-.32,7.47-.04,5.38-.13,10.76.03,16.13.22,7.51,3.56,10.85,11.01,11.44,1.65.13,3.28.42,5.26.69Z"/>
  <path class="b" d="M412.16,593.41h9.82c.26,4.51.52,8.85.8,13.73h15.25v10.2h-15.35c0,9.39-.27,17.98.11,26.54.2,4.33,3.48,6.94,8.02,7.64,2.26.35,4.55.47,7.23.74,0,3.2,0,6.17,0,9.14-13.01,3.88-25.57-3.89-26.15-17.14-.7-16.11-.28-32.28-.32-48.42,0-.59.27-1.18.57-2.42Z"/>
  <path class="b" d="M1052.28,606.77v10.87s-5.35-.3-9.76.31c-3.28.45-5.62,1.42-7.1,2.02-2.54,1.04-4.29,2.48-5.83,4.3-2.33,2.76-3.8,6.38-3.8,10.6,0,3.48.92,6.51,2.81,9.09s4.34,4.42,7.36,5.71c1.38.59,4.43,1.31,7.27,1.65,4.55.54,9.05.51,9.05.51v10.6s-10.99.3-19.92-2.39c-5.48-1.65-9.09-4.89-12.14-8.68-7.16-8.87-8.03-18.9-3.11-28.94,2.38-4.85,7.79-10.92,14.77-13.4,9.1-3.24,20.4-2.26,20.4-2.26Z"/>
  <path class="b" d="M818.08,482.8v80.34h-9.45c-1.47-3.93-1.65-75.23-.19-80.34h9.64Z"/>
  <path class="b" d="M1241.5,661.95h-9.67c-.25-1.8-.7-3.55-.71-5.29-.05-22.87-.04-45.74-.01-68.61,0-1.64.3-3.27.48-5.22h9.91v79.12Z"/>
  <path class="b" d="M612.88,563.19h-9.35c-1.9-4.34-1.66-51.99.32-55.44h7.87c.47,1.35.95,2.74,1.65,4.75,5.65-5.35,12.4-6.38,19.52-5.82,1.57,4.53,1.41,7.11-.63,10.28-.94.07-2,.16-3.06.24-10.08.77-15.08,5.6-15.57,15.81-.38,7.98-.16,15.99-.27,23.99-.03,1.94-.3,3.89-.48,6.18Z"/>
  <path class="b" d="M940.91,507.77h7.76c.51,1.59.95,3,1.51,4.76,5.77-5.23,12.33-6.46,20.04-5.73v10.14c-1.93.13-3.6.18-5.25.35-8.63.89-13.61,5.44-14.26,14.1-.63,8.25-.48,16.57-.65,24.86-.04,2.12,0,4.24,0,6.75h-9.83c-1.82-5.45-1.24-52.26.69-55.22Z"/>
  <path class="b" d="M463.41,661.96h-10.32v-54.28h8.95c.34,1.18.71,2.46,1.08,3.76,3.25-1.49,6.25-3.36,9.52-4.24,3.3-.9,6.87-.83,10.7-1.22v9.85c-1.41.29-2.97.77-4.55.93-9.29.9-13.77,4.62-14.74,13.99-.82,7.91-.47,15.95-.62,23.93-.04,2.27,0,4.54,0,7.28Z"/>
  <path class="b" d="M787.07,507.93v55.01h-10.13v-55.01h10.13Z"/>
  <path class="b" d="M206.39,507.76h9.99v55.19h-9.99v-55.19Z"/>
  <path class="b" d="M17.99,563.12H7.93v-55.22h10.05v55.22Z"/>
  <path class="b" d="M918.61,563.17h-9.74v-55.21h9.32c1.27,3.23,1.66,48.58.42,55.21Z"/>
  <path class="b" d="M239.58,661.73v-54.09h9.97v54.09h-9.97Z"/>
  <path class="b" d="M331.23,661.85c-1.53-3.79-1.69-49.72-.17-54.31h9.3v54.31h-9.13Z"/>
  <path class="b" d="M644.3,589.67c2.31-.63,3.18-3.74,3.18-3.74h6.18c-.67,6.18-5.72,11.72-11.36,11.82-2.1.04-4.01-.62-6.05-1.2-2.19-.62-4.7-1.61-6.31-1.29-3.26.64-3.79,3.44-3.79,3.44,0,0-4.79.08-6.26-.03.7-9.57,9.47-12.82,15.64-11.03,2.88.84,6.47,2.66,8.77,2.03Z"/>
  <path class="b" d="M788.27,492.38c.08,3.8-2.41,6.46-6.13,6.54-3.75.08-6.41-2.44-6.5-6.18-.1-3.74,2.44-6.45,6.14-6.55,3.72-.1,6.42,2.47,6.49,6.19Z"/>
  <path class="b" d="M211.39,498.92c-3.72-.02-6.28-2.63-6.28-6.39,0-3.7,2.64-6.35,6.34-6.34,3.68,0,6.32,2.69,6.3,6.4-.03,3.74-2.65,6.36-6.35,6.33Z"/>
  <path class="b" d="M12.99,486.19c3.76-.05,6.33,2.5,6.35,6.29.03,3.87-2.42,6.42-6.18,6.44-3.68.02-6.42-2.65-6.47-6.28-.05-3.66,2.63-6.4,6.3-6.44Z"/>
  <path class="b" d="M913.76,486.19c3.67-.02,6.44,2.68,6.46,6.31.02,3.66-2.69,6.39-6.35,6.41-3.7.02-6.37-2.61-6.42-6.31-.04-3.69,2.61-6.39,6.31-6.41Z"/>
  <path class="b" d="M250.88,592.55c-.08,3.61-2.97,6.36-6.55,6.22-3.62-.14-6.15-2.96-5.99-6.7.15-3.47,2.79-6.03,6.22-6.02,3.53,0,6.38,2.95,6.31,6.5Z"/>
  <path class="b" d="M1077.92,592.38c.02,3.6-2.81,6.44-6.38,6.4-3.6-.04-6.27-2.86-6.19-6.54.08-3.47,2.67-6.11,6.08-6.2,3.5-.09,6.47,2.8,6.49,6.33Z"/>
  <path class="b" d="M1001.37,592.34c.04,3.6-2.78,6.46-6.33,6.44-3.63-.02-6.27-2.78-6.21-6.49.05-3.46,2.63-6.13,6.02-6.24,3.5-.12,6.49,2.76,6.52,6.29Z"/>
  <path class="b" d="M341.75,592.4c0,3.76-2.66,6.44-6.32,6.38-3.52-.06-6.4-3.06-6.3-6.55.1-3.28,2.93-6.09,6.23-6.18,3.58-.1,6.39,2.7,6.39,6.34Z"/>
  <rect class="b" x="1065.86" y="606.77" width="11.16" height="55.39"/>
  <rect class="b" x="989.29" y="606.77" width="11.16" height="55.39"/>
</svg>