<?xml version="1.0" encoding="utf-8"?>
<!-- Generator: Adobe Illustrator 28.2.0, SVG Export Plug-In . SVG Version: 6.00 Build 0)  -->
<svg version="1.1"
	 id="svg13" xmlns:svg="http://www.w3.org/2000/svg" xmlns:sodipodi="http://sodipodi.sourceforge.net/DTD/sodipodi-0.dtd" xmlns:inkscape="http://www.inkscape.org/namespaces/inkscape"
	 xmlns="http://www.w3.org/2000/svg" xmlns:xlink="http://www.w3.org/1999/xlink" x="0px" y="0px" viewBox="0 0 216.6 68.9"
	 style="enable-background:new 0 0 216.6 68.9;" xml:space="preserve">
<g>
	<g id="g13" transform="scale(1.2817791)">
		<path id="path1" d="M0,27.4c0.1,1.9,0.5,3.9,1,5.7c2.7,1.4,5,3.4,6.7,5.9s2.7,5.5,2.9,8.5c1.5,1.2,3.2,2.3,5,3.2v-2.2
			c0-4.7-1.5-9.3-4.3-13.2C8.5,31.6,4.5,28.8,0,27.4L0,27.4z"/>
		<path id="path2" d="M1.1,17c-0.5,1.6-0.8,3.2-1,4.9c6,1.5,11.2,4.9,15,9.8c3.8,4.8,5.8,10.8,5.8,16.9v4.3c1.6,0.4,3.3,0.8,5,0.9
			v-5.2c0-7.3-2.4-14.3-6.9-20.1C14.5,22.8,8.2,18.7,1.1,17L1.1,17z"/>
		<path id="path3" d="M32.8,31.9c-2.4-5.8-6.1-10.9-10.7-15.1C17.5,12.6,11.9,9.5,6,7.6C4.9,9,4,10.4,3.2,12
			c8.1,2.2,15.2,6.9,20.3,13.5s7.8,14.7,7.8,23.1v5.2c1.7-0.2,3.3-0.5,5-0.9v-4.3C36.2,42.9,35.1,37.2,32.8,31.9z"/>
		<path id="path4" d="M31,11c-4.6-4.6-10-8.3-16-11c-1.7,0.9-3.4,2.1-4.9,3.4c9.2,3.4,17.2,9.6,22.9,17.7c5.6,8.1,8.7,17.7,8.7,27.6
			v2.2c1.8-0.9,3.4-2,5-3.2C46.3,33.8,40.7,20.7,31,11L31,11z"/>
		<path id="path5" d="M51.6,36.4c1.3-1.3,2.9-2.4,4.5-3.3c0.5-1.9,0.9-3.8,1-5.7c-4.5,1.4-8.5,4.2-11.3,8.1
			c-2.8,3.8-4.3,8.4-4.3,13.2v2.2c1.8-0.9,3.5-2,5-3.2C46.8,43.3,48.6,39.4,51.6,36.4L51.6,36.4z"/>
		<path id="path6" d="M36.2,48.6c0-6.1,2-12.1,5.8-16.9c3.8-4.8,9-8.3,15-9.8c-0.2-1.6-0.5-3.3-1-4.9c-7.1,1.7-13.3,5.8-17.8,11.5
			c-4.5,5.7-6.9,12.8-6.9,20.1v5.2c1.7-0.2,3.3-0.5,5-0.9V48.6z"/>
		<path id="path7" d="M25.9,48.6c0-8.3,2.8-16.5,7.8-23.1C38.8,18.9,45.9,14.1,54,12c-0.8-1.5-1.7-3-2.8-4.4
			c-8.8,2.7-16.4,8.1-21.9,15.5c-5.4,7.4-8.4,16.3-8.4,25.5v4.3c1.6,0.4,3.3,0.8,5,0.9L25.9,48.6z"/>
		<path id="path8" d="M15.6,48.6c0-9.9,3-19.5,8.7-27.6c5.6-8.1,13.6-14.3,22.9-17.7c-1.5-1.3-3.2-2.4-4.9-3.4
			c-9.2,4.1-17.1,10.8-22.7,19.2c-5.6,8.4-8.7,18.3-8.9,28.4c1.5,1.2,3.2,2.3,5,3.2L15.6,48.6z"/>
		<path id="path9" d="M77.4,38.4c4,0,7.7-2,7.7-6.5c0-4.3-2.8-5.5-5.9-7c-1.5-0.8-5.9-2.4-5.9-3.7c0-1.1,1.3-1.4,2.9-1.4
			c1.9,0,3.8,0.4,5.7,1.1c0.8-1.2,1.4-2.5,1.7-3.8c-2.6-1.1-5.5-1.7-8.3-1.6c-4,0-6.7,2-6.7,5.9c0,4.4,5.2,6.1,7.4,7.2
			c2.5,1.2,4.5,1.8,4.5,3.7c0,1.6-2.3,1.6-3.4,1.6c-2.7-0.1-5.5-0.7-8-1.8c-0.8,1.2-1.4,2.6-1.9,3.9C70.3,37.6,73.8,38.5,77.4,38.4z
			"/>
		<path id="path10" d="M87.1,37.4v-22h15.2c0.2,1.5,0.2,3.1,0,4.6H91.9v3.7h8.8c0.1,1.4,0.1,2.9,0,4.3h-8.8v4.8H103
			c0.2,1.5,0.2,3.1,0,4.6H87.1z"/>
		<path id="path11" d="M125.1,37.2l-0.1-21.8c-1.6-0.1-3.3-0.1-4.9,0l0,12c-2.8-4.4-6.2-8.4-10.2-11.9v-0.1c-1.6-0.1-3.2-0.1-4.9,0
			l0.1,21.8c1.6,0.1,3.2,0.1,4.9,0l0-15.2c4.4,4.4,7.8,9.6,10.2,15.2C121.9,37.3,123.5,37.3,125.1,37.2z"/>
		<path id="path12" d="M140.6,15.5c-1.6-0.1-3.3-0.1-4.9,0l-8.5,21.8c1.7,0.1,3.4,0.1,5.1,0l1.3-3.3c3-0.8,6.2-0.8,9.2,0l1.3,3.4
			c1.7,0.1,3.4,0.1,5.1,0L140.6,15.5z M135.3,29.3l2.8-7.5l2.9,7.5C139.1,29.1,137.2,29.1,135.3,29.3L135.3,29.3z"/>
		<path id="path13" d="M163.8,27.8c1.2-0.6,2.1-1.5,2.8-2.6c0.7-1.1,1-2.3,1.1-3.6c0-3.7-3-6.2-7.2-6.2h-9.3v21.9
			c1.6,0.1,3.2,0.1,4.8,0v-6.6c1.2-0.2,2.4-0.5,3.6-0.9c1.6,2.4,2.9,4.9,4.2,7.5c1.8,0.1,3.6,0.1,5.4,0
			C167.6,34,165.8,30.9,163.8,27.8z M156,20h3.6c2.3,0,3.3,0.6,3.1,2.2c-0.2,2.2-4,3.5-6.7,4.1L156,20z"/>
	</g>
</g>
</svg>
