<?xml version="1.0" encoding="utf-8"?>
<!-- Generator: Adobe Illustrator 28.2.0, SVG Export Plug-In . SVG Version: 6.00 Build 0)  -->
<svg version="1.1" id="Layer_1" xmlns="http://www.w3.org/2000/svg" xmlns:xlink="http://www.w3.org/1999/xlink" x="0px" y="0px"
	 viewBox="0 0 4096 2214" style="enable-background:new 0 0 4096 2214;" xml:space="preserve">
<style type="text/css">
	.st0{opacity:0.997;fill-rule:evenodd;clip-rule:evenodd;enable-background:new    ;}
	.st1{opacity:0.996;fill-rule:evenodd;clip-rule:evenodd;enable-background:new    ;}
	.st2{opacity:0.994;fill-rule:evenodd;clip-rule:evenodd;enable-background:new    ;}
	.st3{opacity:0.995;fill-rule:evenodd;clip-rule:evenodd;enable-background:new    ;}
</style>
<g>
	<path class="st0" d="M1573.5-0.5c431.7,0,863.3,0,1295,0c-15.7,79.7-31.7,159.4-48,239c-431.7,1-863.3,1.3-1295,1
		C1541.4,159.5,1557.4,79.5,1573.5-0.5z"/>
	<path class="st0" d="M1494.5,370.5c431.7,0,863.3,0,1295,0c-15.5,79.8-31.5,159.4-48,239c-431.7,1-863.3,1.3-1295,1
		C1462.4,530.5,1478.4,450.5,1494.5,370.5z"/>
	<path class="st1" d="M1417.5,752.5c132-0.2,264,0,396,0.5c38.6,2.9,73.9,14.9,106,36c42.1,32.6,58.9,75.5,50.5,128.5
		c-9.6,58.3-39.4,102.8-89.5,133.5c-31.4,18-64.8,31.4-100,40c35.5,5.6,67.8,18.6,97,39c22.7,18.5,36.2,42.3,40.5,71.5
		c6.1,67.5-14.3,125.5-61,174c-46.5,46.1-102.7,71.6-168.5,76.5c-22.6,2.6-45.3,4.3-68,5c-117.7,0.5-235.3,0.7-353,0.5
		C1317,1222.4,1367,987.4,1417.5,752.5z M1583.5,878.5c40.7-0.2,81.3,0,122,0.5c44.7,2.7,64.9,26.2,60.5,70.5
		c-11.6,59.4-47.7,87.6-108.5,84.5c-35.7,0.8-71.3,0.7-107-0.5C1561.9,981.9,1572.9,930.2,1583.5,878.5z M1523.5,1160.5
		c38.7-0.2,77.3,0,116,0.5c73.1,4.8,95.9,41.3,68.5,109.5c-15.4,30-39.9,47.8-73.5,53.5c-8.3,1.6-16.6,2.6-25,3
		c-40.3,0.5-80.7,0.7-121,0.5C1500.3,1271.9,1512,1216.2,1523.5,1160.5z"/>
	<path class="st2" d="M-0.5,1306.5c0-13.3,0-26.7,0-40c2-12.9,4-25.9,6-39c65.7,0,131.3,0,197,0c-14.7,62.2,9.7,96.7,73,103.5
		c30.1,3.2,59.5-0.1,88-10c35.4-15.5,54.4-42.7,57-81.5c-1-18.2-9.7-31.4-26-39.5c-6.8-3.3-13.8-5.9-21-8
		c-60.4-15.8-120.7-31.8-181-48C81.7,1109,46.6,1036.8,87,927.5c15.8-38.5,40-70.6,72.5-96.5c48.9-37.9,104.3-61.4,166-70.5
		c51.8-7.5,103.8-9,156-4.5c31.6,2.6,62.2,9.2,92,20c72.3,29.3,102.4,82.8,90.5,160.5c-1.5,10.7-3.3,21.4-5.5,32c-66,0-132,0-198,0
		c1-7,2.1-14,3.5-21c4.9-39.8-12.3-63.3-51.5-70.5c-37.8-6.3-72.2,1.7-103,24c-21.6,18.1-31.1,41.3-28.5,69.5
		c2.6,10.3,8.1,18.8,16.5,25.5c6.7,5,14.1,9,22,12c52.9,14.8,105.9,29.1,159,43c32.8,8.6,64.2,20.9,94,37
		c37.2,24.4,55.9,59.1,56,104c-4.7,96.1-48.7,167.4-132,214c-63.7,32.5-131.4,49.5-203,51c-48.7,2.4-97.1-0.9-145-10
		c-36.7-6.8-69.7-21.5-99-44C20.3,1377.3,3.6,1345.2-0.5,1306.5z"/>
	<path class="st1" d="M798.5,754.5c178.7,0,357.3,0,536,0c-9.2,45-18.5,90-28,135c-113.3,0-226.7,0-340,0
		c-10.6,48.6-20.9,97.3-31,146c106.3,0,212.7,0,319,0c-9.5,45-19.2,90-29,135c-106.7-0.3-213.3,0-320,1c-10.6,49.5-21.3,99-32,148.5
		c116,0.2,232,0.7,348,1.5c-10,45-20,90-30,135c-181.3,1.3-362.7,1.3-544,0C698.1,1222.6,748.4,988.6,798.5,754.5z"/>
	<path class="st3" d="M2092.5,754.5c131.7-0.2,263.3,0,395,0.5c35.6-1,69.9,5,103,18c41.5,20.9,64,54.7,67.5,101.5
		c2.6,125.7-57.6,201.6-180.5,227.5c-10.9,2.4-21.9,4.4-33,6c-1.4,0.4-2.4,1.2-3,2.5c22,1,43.7,4.2,65,9.5
		c37.7,9.9,58.2,34.4,61.5,73.5c1,10,1.5,20,1.5,30c-2.2,48.7-4.8,97.3-7.5,146c-0.9,28.4-0.6,56.7,1,85
		c143.8-231.8,287.2-463.8,430.5-696c81-1,162-1.3,243-1c42.9,233.4,86.3,466.7,130,700c-74.7,0.3-149.3,0-224-1
		c-6.6-46.3-12.9-92.6-19-139c-95-0.3-190,0-285,1c-26.1,46.1-52.1,92.2-78,138.5c-137.7,0.5-275.3,0.7-413,0.5
		c-0.2-18.3,0.3-36.7,1.5-55c4.7-53.3,9.2-106.7,13.5-160c0.6-14-2.6-27-9.5-39c-6.5-7.8-14.7-13-24.5-15.5c-8.6-2-17.2-3.3-26-4
		c-17-0.2-34-0.3-51-0.5c-17.4,0-34.6,0.7-51.5,2c-19.7,90.6-39.2,181.3-58.5,272c-66.7,0.3-133.3,0-200-1
		C1992.2,1222.6,2042.5,988.6,2092.5,754.5z M2264.5,884.5c38.4-0.4,76.7,0.1,115,1.5c14.4,0.7,28.4,3.4,42,8
		c23,9.8,34.7,27.3,35,52.5c-4.7,71.2-42.7,107.4-114,108.5c-38,0.5-76,0.7-114,0.5C2240.5,998.5,2252.5,941.5,2264.5,884.5z
		 M3074.5,895.5c1,0,2,0,3,0c9.2,97.3,18.5,194.7,28,292c-64,0.2-128,0-192-0.5C2967.8,1090.2,3021.5,993,3074.5,895.5z"/>
	<path class="st1" d="M4095.5,754.5c0,1.7,0,3.3,0,5c-9.6,43.2-18.9,86.5-28,130c-113.3,0-226.7,0-340,0
		c-10.3,48.7-20.7,97.3-31,146c106.3,0,212.7,0,319,0c-9.1,44.8-18.8,89.4-29,134c-106.7,1-213.3,1.3-320,1
		c-10.6,49.9-20.9,99.9-31,150c115.7,0,231.3,0,347,0c-9.7,45.6-19.7,91.1-30,136.5c-181.3,0.7-362.7,0.7-544,0
		c50.8-234.1,101.1-468.2,151-702.5C3738.2,754.5,3916.8,754.5,4095.5,754.5z"/>
	<path class="st0" d="M1235.5,1602.5c431.7,0,863.3,0,1295,0c-15.7,79.7-31.7,159.4-48,239c-431.7,1-863.3,1.3-1295,1
		C1203.4,1762.5,1219.4,1682.5,1235.5,1602.5z"/>
	<path class="st0" d="M2403.5,2213.5c-431.7,0-863.3,0-1295,0c15.9-80,31.9-160,48-240c431.7,0,863.3,0,1295,0
		C2435.9,2053.6,2419.9,2133.6,2403.5,2213.5z"/>
</g>
</svg>
