<?xml version="1.0" encoding="utf-8"?>
<!-- Generator: Adobe Illustrator 28.2.0, SVG Export Plug-In . SVG Version: 6.00 Build 0)  -->
<svg version="1.1" id="Layer_1" xmlns="http://www.w3.org/2000/svg" xmlns:xlink="http://www.w3.org/1999/xlink" x="0px" y="0px"
	 viewBox="0 0 70.5 42" style="enable-background:new 0 0 70.5 42;" xml:space="preserve">
<path d="M56.1,26.2c0,0.4,0,0.7,0.1,1.1c-1-1.7-3.2-2.5-6.3-3.1c-4-0.8-4.5-1.2-4.4-2c0.1-0.8,1.4-1.6,3.4-1.6c1.5,0,3.1,0.4,4.5,1
	v-4c-1.5-0.5-3.2-0.7-4.8-0.7c-5,0-8.3,2.4-8.6,5.7c0,0,0,0,0,0.1c-1.2-3.2-4-5.7-8.9-5.7c-1.3-0.1-2.5,0.1-3.7,0.6
	c-1.2,0.5-2.3,1.1-3.2,2c-0.9,0.9-1.6,1.9-2.1,3.1c-0.5,1.2-0.8,2.4-0.7,3.7c0,0.1,0,0.3,0,0.4c-1.1-2.4-4-3.5-7.8-4.3
	c-4.6-1-5.2-1.4-5.2-2.5c0-1,1.2-1.9,3-1.8c0.9,0,1.8,0.2,2.6,0.5l0.8,0.3c21.6-20,49.1-14.5,56-11.1c-6.4-4.4-13.9-6.9-21.7-7
	c-14.1,0-25.3,7.7-31.5,13.8l0,0h0l0,0c-2-0.7-4.1-1.1-6.2-1c-5.4,0-9.2,2.7-9.2,6.8c0,3.1,1.6,4.5,4.5,5.5l-0.1,0.1
	C4.1,27.8,2,29.8,0,32c0.7,0.5,1.4,1,2.2,1.4c3,1.7,6.4,2.5,9.9,2.6c5.8,0,9.5-2.5,9.7-6.6c1.2,3.7,4.7,6.1,9.3,6.1
	c1.4,0,2.9-0.2,4.3-0.6v-4c-1.3,0.4-2.6,0.6-4,0.6c-1.1,0-2.2-0.4-3-1c-0.9-0.7-1.5-1.6-1.7-2.7h13.9c0-0.5,0.1-0.8,0.1-1.3v-0.1
	c0-0.5,0-1-0.1-1.5c1.1,1.5,3.4,2.1,6.6,2.7c3.9,0.8,4.1,1.4,4.1,2.3c0,0.8-1,1.7-3.3,1.7c-2.5-0.1-5-0.8-7.2-2v4.6
	c2.3,1,4.7,1.6,7.2,1.6c5.3,0,8.9-3.1,8.9-6.4c0-0.1,0-0.1,0-0.2c1,2.1,2.7,3.9,4.8,4.8c1.9,0.9,4,1.3,6.1,1.3c1,0,1.9-0.1,2.9-0.2
	v-3.9c-0.5,0.1-0.9,0.1-1.4,0.1c-3.9,0-7-2.4-7-5.5s3.2-5.5,7-5.5c0.5,0,0.9,0,1.4,0.1v-3.8c-0.9-0.1-1.8-0.2-2.7-0.2
	C61.1,16.8,56.1,20.8,56.1,26.2z M12.1,31.2c-2.5,0-4.9-0.8-6.9-2.2C6,28,6.8,27,7.4,26.3l0.1-0.1c0.9,0.3,2,0.5,3.1,0.7
	c4.5,1,4.9,1.8,4.9,2.7C15.5,30.6,14.2,31.2,12.1,31.2L12.1,31.2z M26.6,24.8c0.1-1.1,0.7-2.1,1.5-2.8c0.8-0.7,1.9-1.1,3-1
	c1.1-0.1,2.1,0.3,3,1c0.8,0.7,1.3,1.7,1.4,2.8H26.6z"/>
</svg>
