<?xml version="1.0" encoding="UTF-8" standalone="no"?>
<svg width="100%" height="100%" viewBox="0 0 460.88467 154.1709" version="1.1" xml:space="preserve"
    style="clip-rule:evenodd;fill-rule:evenodd;stroke-linejoin:round;stroke-miterlimit:2" id="svg72"
    sodipodi:docname="logo-full.svg" inkscape:version="1.4 (86a8ad7, 2024-10-11)"
    xmlns:inkscape="http://www.inkscape.org/namespaces/inkscape"
    xmlns:sodipodi="http://sodipodi.sourceforge.net/DTD/sodipodi-0.dtd" xmlns="http://www.w3.org/2000/svg"
    xmlns:svg="http://www.w3.org/2000/svg">

    <g class="part-primary" id="g39" transform="translate(-28.47862,-30.333)">
        <g transform="translate(134.3944)" id="g6">
            <g transform="matrix(56,0,0,56,193.8228,125.481)" id="g1">
                <path
                    d="M 0.511,-0.541 H 0.62 v 0.54 H 0.505 L 0.493,-0.049 C 0.444,-0.006 0.385,0.015 0.318,0.015 0.237,0.015 0.169,-0.012 0.116,-0.067 0.062,-0.121 0.035,-0.189 0.035,-0.271 c 0,-0.081 0.027,-0.149 0.081,-0.203 0.053,-0.054 0.121,-0.081 0.202,-0.081 0.069,0 0.128,0.022 0.177,0.066 z m -0.286,0.376 c 0.027,0.028 0.062,0.042 0.105,0.042 0.042,0 0.077,-0.014 0.105,-0.042 0.028,-0.028 0.042,-0.063 0.042,-0.106 0,-0.043 -0.014,-0.078 -0.042,-0.106 -0.028,-0.028 -0.063,-0.042 -0.105,-0.042 -0.028,0 -0.053,0.006 -0.075,0.019 -0.023,0.013 -0.04,0.031 -0.053,0.053 -0.013,0.023 -0.019,0.048 -0.019,0.076 0,0.043 0.014,0.078 0.042,0.106 z"
                    id="path1" />
            </g>
            <g transform="matrix(56,0,0,56,236.4668,125.481)" id="g2">
                <path
                    d="M 0.334,-0.13 H 0.4 V 0 H 0.297 C 0.258,0 0.224,-0.008 0.195,-0.023 0.166,-0.038 0.143,-0.06 0.128,-0.089 0.113,-0.119 0.105,-0.153 0.105,-0.193 v -0.23 H 0.007 v -0.031 l 0.214,-0.227 h 0.027 v 0.141 h 0.149 v 0.117 H 0.251 v 0.211 c 0,0.026 0.007,0.046 0.022,0.061 0.014,0.014 0.034,0.021 0.061,0.021 z"
                    id="path2" />
            </g>
            <g transform="matrix(56,0,0,56,264.5508,125.481)" id="g3">
                <path d="m 0.07,-0.612 v -0.136 h 0.146 v 0.136 z M 0.07,0 V -0.54 H 0.216 V 0 Z" id="path3" />
            </g>
            <g transform="matrix(56,0,0,56,284.5708,125.481)" id="g4">
                <path d="M 0.424,-0.54 H 0.576 L 0.361,0 H 0.226 L 0.007,-0.54 h 0.155 l 0.133,0.362 z" id="path4" />
            </g>
            <g transform="matrix(56,0,0,56,320.1588,125.481)" id="g5">
                <path
                    d="M 0.511,-0.541 H 0.62 v 0.54 H 0.505 L 0.493,-0.049 C 0.444,-0.006 0.385,0.015 0.318,0.015 0.237,0.015 0.169,-0.012 0.116,-0.067 0.062,-0.121 0.035,-0.189 0.035,-0.271 c 0,-0.081 0.027,-0.149 0.081,-0.203 0.053,-0.054 0.121,-0.081 0.202,-0.081 0.069,0 0.128,0.022 0.177,0.066 z m -0.286,0.376 c 0.027,0.028 0.062,0.042 0.105,0.042 0.042,0 0.077,-0.014 0.105,-0.042 0.028,-0.028 0.042,-0.063 0.042,-0.106 0,-0.043 -0.014,-0.078 -0.042,-0.106 -0.028,-0.028 -0.063,-0.042 -0.105,-0.042 -0.028,0 -0.053,0.006 -0.075,0.019 -0.023,0.013 -0.04,0.031 -0.053,0.053 -0.013,0.023 -0.019,0.048 -0.019,0.076 0,0.043 0.014,0.078 0.042,0.106 z"
                    id="path5" />
            </g>
        </g>
        <g>
            <g transform="matrix(9,0,0,9,194.6133,141.4453)" id="g7">
                <path
                    d="M 0.401,0.015 C 0.334,0.015 0.272,-0.001 0.217,-0.033 0.162,-0.064 0.118,-0.108 0.087,-0.164 0.056,-0.219 0.04,-0.281 0.04,-0.349 c 0,-0.104 0.035,-0.191 0.104,-0.261 0.068,-0.07 0.154,-0.105 0.257,-0.105 0.085,0 0.159,0.026 0.221,0.077 0.062,0.051 0.101,0.119 0.118,0.202 H 0.588 C 0.579,-0.463 0.565,-0.487 0.547,-0.508 0.529,-0.528 0.507,-0.543 0.482,-0.554 0.458,-0.566 0.43,-0.571 0.401,-0.571 c -0.059,0 -0.109,0.021 -0.148,0.063 -0.04,0.043 -0.06,0.095 -0.06,0.158 0,0.063 0.02,0.116 0.06,0.158 0.039,0.042 0.089,0.063 0.148,0.063 0.046,0 0.086,-0.013 0.119,-0.039 0.033,-0.026 0.056,-0.061 0.069,-0.106 h 0.153 c -0.016,0.087 -0.055,0.156 -0.117,0.209 -0.063,0.053 -0.137,0.08 -0.224,0.08 z"
                    id="path6" />
            </g>
            <g transform="matrix(9,0,0,9,203.9193,141.4453)" id="g8">
                <path
                    d="M 0.412,0.015 C 0.305,0.015 0.216,-0.02 0.145,-0.089 0.074,-0.159 0.039,-0.246 0.039,-0.35 c 0,-0.104 0.035,-0.191 0.106,-0.261 0.071,-0.069 0.16,-0.104 0.267,-0.104 0.07,0 0.133,0.016 0.191,0.048 0.057,0.031 0.101,0.075 0.133,0.131 0.032,0.055 0.048,0.117 0.048,0.186 0,0.105 -0.035,0.192 -0.106,0.261 C 0.607,-0.02 0.519,0.015 0.412,0.015 Z m 0,-0.143 c 0.041,0 0.079,-0.009 0.112,-0.029 0.033,-0.018 0.06,-0.045 0.079,-0.079 0.019,-0.034 0.028,-0.072 0.028,-0.114 0,-0.063 -0.021,-0.116 -0.062,-0.159 -0.042,-0.042 -0.094,-0.063 -0.156,-0.063 -0.063,0 -0.115,0.021 -0.157,0.063 -0.043,0.043 -0.064,0.096 -0.064,0.159 0,0.063 0.021,0.116 0.064,0.158 0.042,0.043 0.094,0.064 0.156,0.064 z"
                    id="path7" />
            </g>
            <g transform="matrix(9,0,0,9,213.6933,141.4453)" id="g9">
                <path d="M 0.524,-0.7 H 0.672 V 0 H 0.546 L 0.229,-0.437 V 0 H 0.08 v -0.7 h 0.137 l 0.307,0.427 z"
                    id="path8" />
            </g>
            <g transform="matrix(9,0,0,9,222.8283,141.4453)" id="g10">
                <path
                    d="M 0.232,-0.141 H 0.511 V 0 H 0.08 V -0.7 H 0.5 v 0.14 H 0.232 v 0.138 h 0.242 v 0.137 H 0.232 Z"
                    id="path9" />
            </g>
            <g transform="matrix(9,0,0,9,230.2263,141.4453)" id="g11">
                <path
                    d="M 0.401,0.015 C 0.334,0.015 0.272,-0.001 0.217,-0.033 0.162,-0.064 0.118,-0.108 0.087,-0.164 0.056,-0.219 0.04,-0.281 0.04,-0.349 c 0,-0.104 0.035,-0.191 0.104,-0.261 0.068,-0.07 0.154,-0.105 0.257,-0.105 0.085,0 0.159,0.026 0.221,0.077 0.062,0.051 0.101,0.119 0.118,0.202 H 0.588 C 0.579,-0.463 0.565,-0.487 0.547,-0.508 0.529,-0.528 0.507,-0.543 0.482,-0.554 0.458,-0.566 0.43,-0.571 0.401,-0.571 c -0.059,0 -0.109,0.021 -0.148,0.063 -0.04,0.043 -0.06,0.095 -0.06,0.158 0,0.063 0.02,0.116 0.06,0.158 0.039,0.042 0.089,0.063 0.148,0.063 0.046,0 0.086,-0.013 0.119,-0.039 0.033,-0.026 0.056,-0.061 0.069,-0.106 h 0.153 c -0.016,0.087 -0.055,0.156 -0.117,0.209 -0.063,0.053 -0.137,0.08 -0.224,0.08 z"
                    id="path10" />
            </g>
            <g transform="matrix(9,0,0,9,239.5323,141.4453)" id="g12">
                <path d="m 0.563,-0.7 v 0.141 H 0.368 V 0 H 0.216 V -0.559 H 0.022 V -0.7 Z" id="path11" />
            </g>
            <g transform="matrix(9,0,0,9,247.1553,141.4453)" id="g13">
                <path
                    d="M 0.545,0 0.496,-0.133 H 0.217 L 0.169,0 H 0.009 L 0.283,-0.7 H 0.426 L 0.709,0 Z m -0.189,-0.515 -0.091,0.25 h 0.183 z"
                    id="path12" />
            </g>
            <g transform="matrix(9,0,0,9,255.9843,141.4453)" id="g14">
                <path d="M 0.524,-0.7 H 0.672 V 0 H 0.546 L 0.229,-0.437 V 0 H 0.08 v -0.7 h 0.137 l 0.307,0.427 z"
                    id="path13" />
            </g>
            <g transform="matrix(9,0,0,9,265.1193,141.4453)" id="g15">
                <path
                    d="m 0.345,-0.7 c 0.103,0 0.188,0.033 0.255,0.098 0.067,0.066 0.1,0.15 0.1,0.251 C 0.7,-0.25 0.667,-0.166 0.6,-0.1 0.533,-0.033 0.448,0 0.345,0 H 0.08 v -0.7 z m -0.004,0.559 c 0.06,0 0.109,-0.02 0.147,-0.059 0.038,-0.039 0.057,-0.09 0.057,-0.151 0,-0.061 -0.019,-0.111 -0.057,-0.15 C 0.45,-0.54 0.401,-0.559 0.341,-0.559 H 0.232 v 0.418 z"
                    id="path14" />
            </g>
            <g transform="matrix(9,0,0,9,274.1553,141.4453)" id="g16">
                <path
                    d="M 0.412,0.015 C 0.305,0.015 0.216,-0.02 0.145,-0.089 0.074,-0.159 0.039,-0.246 0.039,-0.35 c 0,-0.104 0.035,-0.191 0.106,-0.261 0.071,-0.069 0.16,-0.104 0.267,-0.104 0.07,0 0.133,0.016 0.191,0.048 0.057,0.031 0.101,0.075 0.133,0.131 0.032,0.055 0.048,0.117 0.048,0.186 0,0.105 -0.035,0.192 -0.106,0.261 C 0.607,-0.02 0.519,0.015 0.412,0.015 Z m 0,-0.143 c 0.041,0 0.079,-0.009 0.112,-0.029 0.033,-0.018 0.06,-0.045 0.079,-0.079 0.019,-0.034 0.028,-0.072 0.028,-0.114 0,-0.063 -0.021,-0.116 -0.062,-0.159 -0.042,-0.042 -0.094,-0.063 -0.156,-0.063 -0.063,0 -0.115,0.021 -0.157,0.063 -0.043,0.043 -0.064,0.096 -0.064,0.159 0,0.063 0.021,0.116 0.064,0.158 0.042,0.043 0.094,0.064 0.156,0.064 z"
                    id="path15" />
            </g>
            <g transform="matrix(9,0,0,9,288.5008,141.4453)" id="g17">
                <path
                    d="M 0.232,-0.141 H 0.511 V 0 H 0.08 V -0.7 H 0.5 v 0.14 H 0.232 v 0.138 h 0.242 v 0.137 H 0.232 Z"
                    id="path16" />
            </g>
            <g transform="matrix(9,0,0,9,295.8988,141.4453)" id="g18">
                <path
                    d="m 0.345,-0.7 c 0.103,0 0.188,0.033 0.255,0.098 0.067,0.066 0.1,0.15 0.1,0.251 C 0.7,-0.25 0.667,-0.166 0.6,-0.1 0.533,-0.033 0.448,0 0.345,0 H 0.08 v -0.7 z m -0.004,0.559 c 0.06,0 0.109,-0.02 0.147,-0.059 0.038,-0.039 0.057,-0.09 0.057,-0.151 0,-0.061 -0.019,-0.111 -0.057,-0.15 C 0.45,-0.54 0.401,-0.559 0.341,-0.559 H 0.232 v 0.418 z"
                    id="path17" />
            </g>
            <g transform="matrix(9,0,0,9,304.9348,141.4453)" id="g19">
                <path
                    d="M 0.569,-0.063 C 0.514,-0.011 0.445,0.015 0.362,0.015 0.279,0.015 0.21,-0.011 0.155,-0.063 0.1,-0.115 0.073,-0.182 0.073,-0.263 V -0.7 h 0.152 v 0.43 c 0,0.043 0.013,0.077 0.038,0.103 0.025,0.026 0.058,0.039 0.099,0.039 0.041,0 0.074,-0.013 0.1,-0.039 C 0.487,-0.193 0.5,-0.227 0.5,-0.27 V -0.7 h 0.151 v 0.437 c 0,0.081 -0.027,0.148 -0.082,0.2 z"
                    id="path18" />
            </g>
            <g transform="matrix(9,0,0,9,313.8178,141.4453)" id="g20">
                <path
                    d="M 0.401,0.015 C 0.334,0.015 0.272,-0.001 0.217,-0.033 0.162,-0.064 0.118,-0.108 0.087,-0.164 0.056,-0.219 0.04,-0.281 0.04,-0.349 c 0,-0.104 0.035,-0.191 0.104,-0.261 0.068,-0.07 0.154,-0.105 0.257,-0.105 0.085,0 0.159,0.026 0.221,0.077 0.062,0.051 0.101,0.119 0.118,0.202 H 0.588 C 0.579,-0.463 0.565,-0.487 0.547,-0.508 0.529,-0.528 0.507,-0.543 0.482,-0.554 0.458,-0.566 0.43,-0.571 0.401,-0.571 c -0.059,0 -0.109,0.021 -0.148,0.063 -0.04,0.043 -0.06,0.095 -0.06,0.158 0,0.063 0.02,0.116 0.06,0.158 0.039,0.042 0.089,0.063 0.148,0.063 0.046,0 0.086,-0.013 0.119,-0.039 0.033,-0.026 0.056,-0.061 0.069,-0.106 h 0.153 c -0.016,0.087 -0.055,0.156 -0.117,0.209 -0.063,0.053 -0.137,0.08 -0.224,0.08 z"
                    id="path19" />
            </g>
            <g transform="matrix(9,0,0,9,323.1238,141.4453)" id="g21">
                <path
                    d="M 0.545,0 0.496,-0.133 H 0.217 L 0.169,0 H 0.009 L 0.283,-0.7 H 0.426 L 0.709,0 Z m -0.189,-0.515 -0.091,0.25 h 0.183 z"
                    id="path20" />
            </g>
            <g transform="matrix(9,0,0,9,331.9528,141.4453)" id="g22">
                <path
                    d="M 0.742,-0.274 C 0.727,-0.194 0.693,-0.128 0.638,-0.076 0.583,-0.025 0.517,0.005 0.439,0.013 L 0.435,0.029 C 0.462,0.036 0.482,0.047 0.497,0.063 0.513,0.079 0.52,0.099 0.52,0.123 0.52,0.154 0.507,0.18 0.482,0.2 0.457,0.219 0.424,0.229 0.384,0.229 H 0.312 V 0.155 H 0.383 C 0.394,0.155 0.404,0.152 0.411,0.146 0.418,0.14 0.422,0.132 0.422,0.122 0.422,0.112 0.418,0.104 0.411,0.098 0.404,0.091 0.394,0.088 0.383,0.088 H 0.341 L 0.335,0.08 0.35,0.012 C 0.26,0 0.186,-0.04 0.128,-0.107 0.069,-0.174 0.04,-0.255 0.04,-0.349 c 0,-0.104 0.035,-0.191 0.104,-0.261 0.068,-0.07 0.154,-0.105 0.257,-0.105 0.085,0 0.159,0.026 0.221,0.077 0.062,0.051 0.101,0.119 0.118,0.202 H 0.588 C 0.579,-0.463 0.565,-0.487 0.547,-0.508 0.529,-0.528 0.507,-0.543 0.482,-0.554 0.458,-0.566 0.43,-0.571 0.401,-0.571 c -0.059,0 -0.109,0.021 -0.148,0.063 -0.04,0.043 -0.06,0.095 -0.06,0.158 0,0.063 0.02,0.116 0.06,0.158 0.039,0.042 0.089,0.063 0.148,0.063 0.046,0 0.086,-0.013 0.119,-0.039 0.033,-0.026 0.056,-0.061 0.069,-0.106 z"
                    id="path21" />
            </g>
            <g transform="matrix(9,0,0,9,341.2588,141.4453)" id="g23">
                <path
                    d="M 0.424,-0.762 C 0.411,-0.762 0.398,-0.764 0.385,-0.769 0.372,-0.774 0.363,-0.777 0.358,-0.78 0.353,-0.783 0.344,-0.788 0.33,-0.797 0.309,-0.81 0.294,-0.816 0.286,-0.816 c -0.01,0 -0.018,0.004 -0.025,0.012 -0.007,0.007 -0.011,0.017 -0.011,0.029 v 0.008 H 0.169 v -0.011 c 0,-0.042 0.01,-0.075 0.031,-0.1 0.02,-0.024 0.048,-0.036 0.085,-0.036 0.028,0 0.057,0.011 0.087,0.032 0.02,0.015 0.037,0.023 0.05,0.023 0.007,0 0.014,-0.002 0.019,-0.006 0.005,-0.003 0.01,-0.008 0.013,-0.014 0.002,-0.006 0.004,-0.013 0.004,-0.022 V -0.91 h 0.081 v 0.011 c 0,0.042 -0.01,0.075 -0.03,0.1 -0.021,0.025 -0.049,0.037 -0.085,0.037 z M 0.545,0 0.496,-0.133 H 0.217 L 0.169,0 H 0.009 L 0.283,-0.7 H 0.426 L 0.709,0 Z m -0.189,-0.515 -0.091,0.25 h 0.183 z"
                    id="path22" />
            </g>
            <g transform="matrix(9,0,0,9,350.0878,141.4453)" id="g24">
                <path
                    d="M 0.412,0.015 C 0.305,0.015 0.216,-0.02 0.145,-0.089 0.074,-0.159 0.039,-0.246 0.039,-0.35 c 0,-0.104 0.035,-0.191 0.106,-0.261 0.071,-0.069 0.16,-0.104 0.267,-0.104 0.07,0 0.133,0.016 0.191,0.048 0.057,0.031 0.101,0.075 0.133,0.131 0.032,0.055 0.048,0.117 0.048,0.186 0,0.105 -0.035,0.192 -0.106,0.261 C 0.607,-0.02 0.519,0.015 0.412,0.015 Z m 0,-0.143 c 0.041,0 0.079,-0.009 0.112,-0.029 0.033,-0.018 0.06,-0.045 0.079,-0.079 0.019,-0.034 0.028,-0.072 0.028,-0.114 0,-0.063 -0.021,-0.116 -0.062,-0.159 -0.042,-0.042 -0.094,-0.063 -0.156,-0.063 -0.063,0 -0.115,0.021 -0.157,0.063 -0.043,0.043 -0.064,0.096 -0.064,0.159 0,0.063 0.021,0.116 0.064,0.158 0.042,0.043 0.094,0.064 0.156,0.064 z"
                    id="path23" />
            </g>
            <g transform="matrix(9,0,0,9,364.3533,141.4453)" id="g25">
                <path
                    d="M 0.232,-0.141 H 0.511 V 0 H 0.08 V -0.7 H 0.5 v 0.14 H 0.232 v 0.138 h 0.242 v 0.137 H 0.232 Z"
                    id="path24" />
            </g>
            <g transform="matrix(9,0,0,9,377.0883,141.4453)" id="g26">
                <path d="m 0.563,-0.7 v 0.141 H 0.368 V 0 H 0.216 V -0.559 H 0.022 V -0.7 Z" id="path25" />
            </g>
            <g transform="matrix(9,0,0,9,384.7113,141.4453)" id="g27">
                <path
                    d="M 0.465,0 0.329,-0.239 H 0.232 V 0 H 0.08 v -0.7 h 0.283 c 0.046,0 0.088,0.01 0.125,0.03 0.037,0.019 0.066,0.047 0.088,0.082 0.02,0.035 0.031,0.075 0.031,0.12 0,0.045 -0.011,0.085 -0.034,0.121 C 0.55,-0.311 0.519,-0.284 0.48,-0.265 L 0.635,0 Z M 0.232,-0.56 v 0.181 h 0.121 c 0.031,0 0.055,-0.008 0.073,-0.025 0.019,-0.017 0.028,-0.038 0.028,-0.065 0,-0.018 -0.004,-0.034 -0.012,-0.047 C 0.434,-0.53 0.422,-0.541 0.407,-0.548 0.392,-0.556 0.374,-0.56 0.353,-0.56 Z"
                    id="path26" />
            </g>
            <g transform="matrix(9,0,0,9,393.0273,141.4453)" id="g28">
                <path
                    d="M 0.545,0 0.496,-0.133 H 0.217 L 0.169,0 H 0.009 L 0.283,-0.7 H 0.426 L 0.709,0 Z m -0.189,-0.515 -0.091,0.25 h 0.183 z"
                    id="path27" />
            </g>
            <g transform="matrix(9,0,0,9,401.8563,141.4453)" id="g29">
                <path d="M 0.524,-0.7 H 0.672 V 0 H 0.546 L 0.229,-0.437 V 0 H 0.08 v -0.7 h 0.137 l 0.307,0.427 z"
                    id="path28" />
            </g>
            <g transform="matrix(9,0,0,9,410.9913,141.4453)" id="g30">
                <path
                    d="M 0.312,0.014 C 0.231,0.014 0.165,-0.008 0.116,-0.051 0.066,-0.094 0.041,-0.152 0.041,-0.227 h 0.153 c 0,0.017 0.003,0.031 0.01,0.045 0.006,0.013 0.014,0.023 0.026,0.031 0.011,0.008 0.023,0.014 0.037,0.018 0.014,0.004 0.029,0.006 0.044,0.006 0.031,0 0.057,-0.007 0.08,-0.022 0.022,-0.015 0.033,-0.035 0.033,-0.06 0,-0.011 -0.003,-0.02 -0.008,-0.029 C 0.411,-0.246 0.405,-0.253 0.398,-0.258 0.391,-0.263 0.38,-0.268 0.365,-0.273 0.351,-0.278 0.339,-0.282 0.329,-0.285 0.319,-0.288 0.304,-0.291 0.284,-0.296 0.268,-0.3 0.256,-0.303 0.248,-0.305 0.24,-0.307 0.228,-0.31 0.212,-0.315 0.197,-0.32 0.185,-0.324 0.176,-0.328 0.168,-0.331 0.157,-0.336 0.144,-0.343 0.131,-0.35 0.12,-0.356 0.113,-0.363 0.106,-0.37 0.097,-0.378 0.088,-0.388 0.08,-0.398 0.073,-0.409 0.068,-0.419 0.063,-0.431 0.059,-0.443 0.056,-0.458 0.053,-0.472 0.051,-0.487 0.051,-0.503 c 0,-0.067 0.023,-0.118 0.068,-0.155 0.045,-0.037 0.107,-0.055 0.186,-0.055 0.079,0 0.141,0.02 0.185,0.06 0.045,0.04 0.067,0.095 0.067,0.165 h -0.15 c 0,-0.029 -0.01,-0.05 -0.03,-0.065 -0.021,-0.016 -0.046,-0.023 -0.076,-0.023 -0.027,0 -0.05,0.006 -0.069,0.017 -0.02,0.011 -0.03,0.028 -0.03,0.049 0,0.01 0.003,0.019 0.007,0.027 0.005,0.007 0.011,0.013 0.018,0.018 0.007,0.005 0.017,0.01 0.031,0.015 0.014,0.006 0.026,0.009 0.035,0.011 0.01,0.003 0.025,0.006 0.044,0.011 0.021,0.005 0.037,0.009 0.048,0.012 0.011,0.003 0.026,0.008 0.046,0.015 0.02,0.007 0.036,0.014 0.047,0.021 0.01,0.007 0.023,0.016 0.038,0.027 0.015,0.01 0.026,0.022 0.033,0.035 0.008,0.014 0.015,0.029 0.021,0.047 0.005,0.019 0.008,0.039 0.008,0.06 0,0.049 -0.012,0.09 -0.037,0.125 C 0.516,-0.051 0.484,-0.026 0.446,-0.01 0.407,0.006 0.362,0.014 0.312,0.014 Z"
                    id="path29" />
            </g>
            <g transform="matrix(9,0,0,9,418.9293,141.4453)" id="g31">
                <path d="M 0.498,-0.559 H 0.232 v 0.154 h 0.24 v 0.137 H 0.232 V 0 H 0.08 v -0.7 h 0.418 z"
                    id="path30" />
            </g>
            <g transform="matrix(9,0,0,9,426.1113,141.4453)" id="g32">
                <path
                    d="M 0.412,0.015 C 0.305,0.015 0.216,-0.02 0.145,-0.089 0.074,-0.159 0.039,-0.246 0.039,-0.35 c 0,-0.104 0.035,-0.191 0.106,-0.261 0.071,-0.069 0.16,-0.104 0.267,-0.104 0.07,0 0.133,0.016 0.191,0.048 0.057,0.031 0.101,0.075 0.133,0.131 0.032,0.055 0.048,0.117 0.048,0.186 0,0.105 -0.035,0.192 -0.106,0.261 C 0.607,-0.02 0.519,0.015 0.412,0.015 Z m 0,-0.143 c 0.041,0 0.079,-0.009 0.112,-0.029 0.033,-0.018 0.06,-0.045 0.079,-0.079 0.019,-0.034 0.028,-0.072 0.028,-0.114 0,-0.063 -0.021,-0.116 -0.062,-0.159 -0.042,-0.042 -0.094,-0.063 -0.156,-0.063 -0.063,0 -0.115,0.021 -0.157,0.063 -0.043,0.043 -0.064,0.096 -0.064,0.159 0,0.063 0.021,0.116 0.064,0.158 0.042,0.043 0.094,0.064 0.156,0.064 z"
                    id="path31" />
            </g>
            <g transform="matrix(9,0,0,9,435.8853,141.4453)" id="g33">
                <path
                    d="M 0.465,0 0.329,-0.239 H 0.232 V 0 H 0.08 v -0.7 h 0.283 c 0.046,0 0.088,0.01 0.125,0.03 0.037,0.019 0.066,0.047 0.088,0.082 0.02,0.035 0.031,0.075 0.031,0.12 0,0.045 -0.011,0.085 -0.034,0.121 C 0.55,-0.311 0.519,-0.284 0.48,-0.265 L 0.635,0 Z M 0.232,-0.56 v 0.181 h 0.121 c 0.031,0 0.055,-0.008 0.073,-0.025 0.019,-0.017 0.028,-0.038 0.028,-0.065 0,-0.018 -0.004,-0.034 -0.012,-0.047 C 0.434,-0.53 0.422,-0.541 0.407,-0.548 0.392,-0.556 0.374,-0.56 0.353,-0.56 Z"
                    id="path32" />
            </g>
            <g transform="matrix(9,0,0,9,444.2013,141.4453)" id="g34">
                <path
                    d="M 0.938,0 H 0.784 L 0.715,-0.457 0.506,-0.001 H 0.469 L 0.26,-0.457 0.191,0 H 0.036 l 0.11,-0.7 h 0.152 l 0.189,0.429 0.19,-0.429 h 0.152 z"
                    id="path33" />
            </g>
            <g transform="matrix(9,0,0,9,455.3433,141.4453)" id="g35">
                <path
                    d="M 0.545,0 0.496,-0.133 H 0.217 L 0.169,0 H 0.009 L 0.283,-0.7 H 0.426 L 0.709,0 Z m -0.189,-0.515 -0.091,0.25 h 0.183 z"
                    id="path34" />
            </g>
            <g transform="matrix(9,0,0,9,464.1723,141.4453)" id="g36">
                <path
                    d="M 0.742,-0.274 C 0.727,-0.194 0.693,-0.128 0.638,-0.076 0.583,-0.025 0.517,0.005 0.439,0.013 L 0.435,0.029 C 0.462,0.036 0.482,0.047 0.497,0.063 0.513,0.079 0.52,0.099 0.52,0.123 0.52,0.154 0.507,0.18 0.482,0.2 0.457,0.219 0.424,0.229 0.384,0.229 H 0.312 V 0.155 H 0.383 C 0.394,0.155 0.404,0.152 0.411,0.146 0.418,0.14 0.422,0.132 0.422,0.122 0.422,0.112 0.418,0.104 0.411,0.098 0.404,0.091 0.394,0.088 0.383,0.088 H 0.341 L 0.335,0.08 0.35,0.012 C 0.26,0 0.186,-0.04 0.128,-0.107 0.069,-0.174 0.04,-0.255 0.04,-0.349 c 0,-0.104 0.035,-0.191 0.104,-0.261 0.068,-0.07 0.154,-0.105 0.257,-0.105 0.085,0 0.159,0.026 0.221,0.077 0.062,0.051 0.101,0.119 0.118,0.202 H 0.588 C 0.579,-0.463 0.565,-0.487 0.547,-0.508 0.529,-0.528 0.507,-0.543 0.482,-0.554 0.458,-0.566 0.43,-0.571 0.401,-0.571 c -0.059,0 -0.109,0.021 -0.148,0.063 -0.04,0.043 -0.06,0.095 -0.06,0.158 0,0.063 0.02,0.116 0.06,0.158 0.039,0.042 0.089,0.063 0.148,0.063 0.046,0 0.086,-0.013 0.119,-0.039 0.033,-0.026 0.056,-0.061 0.069,-0.106 z"
                    id="path35" />
            </g>
            <g transform="matrix(9,0,0,9,473.4783,141.4453)" id="g37">
                <path
                    d="M 0.424,-0.762 C 0.411,-0.762 0.398,-0.764 0.385,-0.769 0.372,-0.774 0.363,-0.777 0.358,-0.78 0.353,-0.783 0.344,-0.788 0.33,-0.797 0.309,-0.81 0.294,-0.816 0.286,-0.816 c -0.01,0 -0.018,0.004 -0.025,0.012 -0.007,0.007 -0.011,0.017 -0.011,0.029 v 0.008 H 0.169 v -0.011 c 0,-0.042 0.01,-0.075 0.031,-0.1 0.02,-0.024 0.048,-0.036 0.085,-0.036 0.028,0 0.057,0.011 0.087,0.032 0.02,0.015 0.037,0.023 0.05,0.023 0.007,0 0.014,-0.002 0.019,-0.006 0.005,-0.003 0.01,-0.008 0.013,-0.014 0.002,-0.006 0.004,-0.013 0.004,-0.022 V -0.91 h 0.081 v 0.011 c 0,0.042 -0.01,0.075 -0.03,0.1 -0.021,0.025 -0.049,0.037 -0.085,0.037 z M 0.545,0 0.496,-0.133 H 0.217 L 0.169,0 H 0.009 L 0.283,-0.7 H 0.426 L 0.709,0 Z m -0.189,-0.515 -0.091,0.25 h 0.183 z"
                    id="path36" />
            </g>
            <g transform="matrix(9,0,0,9,482.3073,141.4453)" id="g38">
                <path
                    d="M 0.412,0.015 C 0.305,0.015 0.216,-0.02 0.145,-0.089 0.074,-0.159 0.039,-0.246 0.039,-0.35 c 0,-0.104 0.035,-0.191 0.106,-0.261 0.071,-0.069 0.16,-0.104 0.267,-0.104 0.07,0 0.133,0.016 0.191,0.048 0.057,0.031 0.101,0.075 0.133,0.131 0.032,0.055 0.048,0.117 0.048,0.186 0,0.105 -0.035,0.192 -0.106,0.261 C 0.607,-0.02 0.519,0.015 0.412,0.015 Z m 0,-0.143 c 0.041,0 0.079,-0.009 0.112,-0.029 0.033,-0.018 0.06,-0.045 0.079,-0.079 0.019,-0.034 0.028,-0.072 0.028,-0.114 0,-0.063 -0.021,-0.116 -0.062,-0.159 -0.042,-0.042 -0.094,-0.063 -0.156,-0.063 -0.063,0 -0.115,0.021 -0.157,0.063 -0.043,0.043 -0.064,0.096 -0.064,0.159 0,0.063 0.021,0.116 0.064,0.158 0.042,0.043 0.094,0.064 0.156,0.064 z"
                    id="path37" />
            </g>
        </g>
        <g>
            <g transform="translate(136.2892,116.5461)" id="g40">
                <path
                    d="M 0,4.891 C -0.075,4.708 -0.149,4.525 -0.228,4.343 c -1.277,-2.97 -2.8,-5.805 -4.551,-8.494 1.213,-1.152 2.33,-2.295 3.43,-3.41 0.932,3.178 1.434,6.538 1.434,10.013 0,0.82 -0.03,1.633 -0.085,2.439 m -8.147,20.32 c -1.62,-3.281 -3.556,-6.377 -5.793,-9.264 0.781,-3.71 1.175,-7.509 1.175,-11.367 0,-0.825 -0.018,-1.648 -0.054,-2.468 0.482,-0.3 0.963,-0.608 1.438,-0.925 2.2,-1.468 4.037,-2.976 5.68,-4.478 2.196,3.403 4.018,7.068 5.406,10.938 -0.97,6.616 -3.763,12.647 -7.852,17.564 m -14.279,10.334 c 2.056,-3.005 3.886,-6.196 5.318,-9.581 1.155,-2.73 2.087,-5.652 2.78,-8.506 2.075,2.677 3.827,5.584 5.263,8.673 -3.627,4.037 -8.245,7.36 -13.361,9.414 M -23.075,8.118 c 2.843,2.375 5.464,5.137 7.765,8.043 -1.385,6.206 -3.838,12.128 -7.172,17.323 0.784,-3.717 1.18,-7.522 1.18,-11.388 0,-4.692 -0.62,-9.514 -1.773,-13.978 m -1.334,28.076 c -3.494,1.147 -7.303,1.834 -11.175,1.834 -6.765,0 -13.071,-1.992 -18.514,-5.17 1.251,-0.425 2.575,-0.891 3.799,-1.408 6.54,-2.766 12.37,-6.666 17.413,-11.709 3.364,-3.364 6.295,-7.161 8.662,-11.215 1.124,4.317 1.671,8.906 1.671,13.57 0,4.927 -0.607,9.562 -1.856,14.098 M -41.292,-1.648 c 5.899,1.769 11.508,4.577 16.499,8.577 -6.551,11.767 -17.399,20.827 -30.408,25.045 0.541,-12.964 5.675,-24.711 13.909,-33.622 m -15.13,32.995 c -8.956,-6.483 -14.795,-17.019 -14.795,-28.895 0,-1.652 0.116,-3.278 0.335,-4.87 4.311,-1.12 8.81,-1.714 13.467,-1.714 5.126,0 10.107,0.72 14.806,2.068 -4.094,4.474 -7.263,9.478 -9.654,15.148 -2.456,5.825 -3.81,11.945 -4.159,18.263 m 1.213,-58.631 c 4.882,2.16 9.411,5.015 13.542,8.349 -4.403,0.687 -8.695,1.908 -12.83,3.657 -5.897,2.494 -11.128,5.939 -15.942,10.316 1.971,-9.283 7.566,-17.242 15.23,-22.322 m 4.429,-0.606 c 4.962,0 9.76,0.67 14.315,1.925 -1.648,2.189 -3.083,4.468 -4.066,6.343 -3.949,-3.258 -8.297,-5.989 -12.937,-8.212 0.865,-0.042 1.813,-0.056 2.688,-0.056 m 15.251,-5.263 c 1.721,0 3.391,0.098 5.036,0.323 -0.857,0.872 -2.961,3.08 -5.017,5.635 -0.036,0.044 -0.071,0.089 -0.106,0.134 -4.872,-1.398 -9.897,-2.089 -15.09,-2.089 -0.389,0 -0.966,0.011 -1.353,0.019 4.918,-2.564 10.611,-4.022 16.53,-4.022 m 6.563,0.608 c 3.67,3.826 6.781,8.193 9.199,12.968 -3.031,-2.082 -6.266,-3.858 -9.684,-5.303 -1.626,-0.688 -3.27,-1.291 -4.931,-1.811 1.654,-2.088 3.466,-4.045 5.416,-5.854 m 9.975,3.442 c 0.616,3.245 0.938,6.592 0.938,10.013 0,0.044 -10e-4,0.087 -10e-4,0.13 -2.274,-4.793 -5.213,-9.2 -8.771,-13.153 2.753,0.696 5.378,1.714 7.834,3.01 m -6.627,29.824 c -1.611,-3.808 -3.629,-7.388 -6.027,-10.712 3.948,-2.678 8.27,-4.845 12.87,-6.404 0.186,0.052 0.372,0.105 0.557,0.158 0.027,0.063 0.052,0.126 0.079,0.189 -0.43,7.648 -2.467,14.873 -5.78,21.342 -0.497,-1.544 -1.063,-3.069 -1.699,-4.573 m -7.2,-9.983 c 2.423,2.684 5.981,9.337 7.442,14.169 -3.305,-2.377 -6.861,-4.378 -10.643,-5.977 -1.412,-0.597 -2.842,-1.132 -4.289,-1.606 2.187,-2.476 4.702,-4.631 7.49,-6.586 m -0.635,-1.026 c -2.483,1.753 -4.854,3.662 -6.972,5.907 -0.408,0.432 -0.83,0.849 -1.236,1.281 -5.076,-1.519 -10.219,-2.302 -15.606,-2.236 -4.112,0.05 -8.301,0.468 -12.298,1.3 7.891,-7.312 17.978,-12.287 29.147,-13.812 2.554,2.291 4.887,4.823 6.965,7.56 m 12.492,-6.665 c -0.673,0.254 -1.343,0.522 -2.009,0.803 -3.324,1.406 -6.476,3.123 -9.435,5.132 -1.52,-2.006 -3.18,-3.915 -4.981,-5.716 -0.448,-0.448 -0.905,-0.884 -1.366,-1.315 1.851,-0.194 3.729,-0.294 5.631,-0.294 4.181,0 8.252,0.481 12.16,1.39 m -12.084,-2.597 c -2.079,0 -4.202,0.08 -6.254,0.301 1.207,-2.223 2.572,-4.348 4.08,-6.358 5.638,1.703 10.883,4.313 15.579,7.678 -4.377,-1.106 -8.811,-1.621 -13.405,-1.621 m 19.029,24.13 c 0,3.444 -0.326,6.814 -0.949,10.08 -1.13,-1.372 -2.33,-2.693 -3.599,-3.962 -1.254,-1.254 -2.561,-2.438 -3.916,-3.556 1.788,-0.77 5.071,-2.3 8.434,-4.286 0.018,0.574 0.03,1.148 0.03,1.724 m -3.092,-18.07 c 1.671,4.698 2.709,9.794 3.003,15.018 -2.708,1.698 -5.671,3.247 -8.748,4.457 0.621,-1.209 1.202,-2.44 1.735,-3.699 2.039,-4.817 3.3,-10.083 4.01,-15.776 m 9.192,-6.505 c -2.996,0.345 -6.004,0.831 -8.892,1.663 0.004,-0.252 -0.059,-0.521 -0.059,-0.774 0,-0.711 -0.047,-1.368 -0.074,-2.075 -0.091,-2.393 -0.328,-4.929 -0.723,-7.265 3.666,2.153 7.068,5.178 9.748,8.451 m 5.734,9.938 c -2.996,-2.047 -6.191,-3.794 -9.564,-5.221 -1.488,-0.629 -2.996,-1.19 -4.522,-1.683 -0.066,-0.053 -0.131,-0.105 -0.196,-0.157 3.033,-0.876 6.175,-1.492 9.401,-1.82 2.025,2.691 3.677,5.677 4.881,8.881 m -4.176,5.769 c -1.864,1.681 -4.08,3.412 -6.537,5.037 -0.385,-5.618 -1.618,-11.085 -3.682,-16.313 3.914,3.253 7.359,7.051 10.219,11.276 m 0.92,-0.853 c -1.93,-2.832 -4.12,-5.496 -6.558,-7.971 -0.532,-0.54 -1.083,-1.057 -1.638,-1.569 4.044,1.582 7.851,3.642 11.352,6.108 -0.827,1.065 -1.893,2.228 -3.156,3.432 m 5.629,-1.581 c -0.203,-0.715 -0.426,-1.556 -0.593,-2.068 -1.167,-3.666 -2.909,-7.128 -5.179,-10.277 -0.401,-0.608 -0.609,-0.866 -0.889,-1.186 -0.924,-1.18 -1.926,-2.312 -3.002,-3.389 -2.525,-2.525 -5.353,-4.637 -8.4,-6.306 -0.591,-0.339 -0.952,-0.534 -1.446,-0.751 -2.861,-1.405 -5.895,-2.432 -9.043,-3.052 -0.334,-0.097 -1.615,-0.327 -2.053,-0.365 -1.656,-0.225 -3.378,-0.334 -5.078,-0.334 -6.895,0 -13.574,1.881 -19.307,5.395 -0.188,0.109 -1.699,1.063 -2.205,1.463 -1.641,1.177 -3.199,2.494 -4.655,3.95 -5.553,5.553 -9.116,12.565 -10.336,20.171 -0.017,0.02 -0.257,1.711 -0.28,2.131 -0.127,1.251 -0.192,2.516 -0.192,3.792 0,9.857 3.913,19.1 10.882,26.07 1.465,1.464 2.958,2.812 4.609,3.994 0.27,0.215 1.16,0.798 1.724,1.163 5.841,3.552 12.63,5.662 19.705,5.573 3.343,-0.043 6.537,-0.507 9.729,-1.261 0.62,-0.168 1.83,-0.479 2.379,-0.67 5.17,-1.884 9.939,-4.84 13.967,-8.776 0.348,-0.34 0.678,-0.695 1.007,-1.05 0.287,-0.303 0.628,-0.671 0.919,-1.028 4.057,-4.719 6.81,-10.306 8.08,-16.317 C 0.715,9.397 0.942,7.909 0.993,7.497 1.219,5.839 1.336,4.154 1.336,2.452 c 0,-3.136 -0.39,-6.212 -1.145,-9.174"
                    id="path39" />
            </g>
            <g transform="matrix(0,-1,-1,0,66.8242,127.6292)" id="g41">
                <path
                    d="m -3.752,-3.752 c -2.073,0 -3.753,1.68 -3.753,3.753 0,2.071 1.68,3.751 3.753,3.751 2.073,0 3.753,-1.68 3.753,-3.751 0,-2.073 -1.68,-3.753 -3.753,-3.753"
                    id="path40" />
            </g>
            <g transform="matrix(0,-1,-1,0,65.0169,108.4144)" id="g42">
                <path
                    d="m -3.878,-3.878 c -2.142,0 -3.878,1.736 -3.878,3.878 0,2.141 1.736,3.878 3.878,3.878 C -1.736,3.878 0,2.141 0,0 0,-2.142 -1.736,-3.878 -3.878,-3.878"
                    id="path41" />
            </g>
            <g transform="matrix(0,-1,-1,0,118.5125,94.4331)" id="g43">
                <path
                    d="m -4.691,-4.691 c -2.591,0 -4.691,2.1 -4.691,4.691 0,2.591 2.1,4.691 4.691,4.691 C -2.1,4.691 0,2.591 0,0 0,-2.591 -2.1,-4.691 -4.691,-4.691"
                    id="path42" />
            </g>
            <g transform="matrix(0,-1,-1,0,81.6254,83.534)" id="g44">
                <path
                    d="m -4.691,-4.691 c -2.591,0 -4.691,2.1 -4.691,4.691 0,2.591 2.1,4.691 4.691,4.691 C -2.1,4.691 0,2.591 0,0 0,-2.591 -2.1,-4.691 -4.691,-4.691"
                    id="path43" />
            </g>
            <g transform="matrix(0,-1,-1,0,136.8749,119.0397)" id="g45">
                <path
                    d="m -3.752,-3.752 c -2.073,0 -3.753,1.68 -3.753,3.753 0,2.071 1.68,3.751 3.753,3.751 2.073,0 3.753,-1.68 3.753,-3.751 0,-2.073 -1.68,-3.753 -3.753,-3.753"
                    id="path44" />
            </g>
            <g transform="matrix(0,-1,-1,0,97.8323,150.5134)" id="g46">
                <path
                    d="m -3.816,-3.816 c -2.107,0 -3.814,1.709 -3.814,3.815 0,2.107 1.707,3.817 3.814,3.817 2.108,0 3.815,-1.71 3.815,-3.817 0,-2.106 -1.707,-3.815 -3.815,-3.815"
                    id="path45" />
            </g>
            <g transform="matrix(0,-1,-1,0,113.0657,149.0194)" id="g47">
                <path
                    d="m -4.003,-4.003 c -2.211,0 -4.003,1.792 -4.003,4.003 0,2.211 1.792,4.003 4.003,4.003 C -1.792,4.003 0,2.211 0,0 0,-2.211 -1.792,-4.003 -4.003,-4.003"
                    id="path46" />
            </g>
            <g transform="matrix(0,-1,-1,0,80.8896,144.5162)" id="g48">
                <path
                    d="m -4.003,-4.003 c -2.211,0 -4.003,1.792 -4.003,4.003 0,2.211 1.792,4.003 4.003,4.003 C -1.792,4.003 0,2.211 0,0 0,-2.211 -1.792,-4.003 -4.003,-4.003"
                    id="path47" />
            </g>
            <g transform="matrix(0,-1,-1,0,101.7522,142.4524)" id="g49">
                <path
                    d="m -2.314,-2.314 c -1.278,0 -2.314,1.036 -2.314,2.314 0,1.278 1.036,2.314 2.314,2.314 C -1.036,2.314 0,1.278 0,0 0,-1.278 -1.036,-2.314 -2.314,-2.314"
                    id="path48" />
            </g>
            <g transform="matrix(0,-1,-1,0,128.1138,140.1219)" id="g50">
                <path
                    d="m -2.814,-2.814 c -1.555,0 -2.815,1.26 -2.815,2.814 0,1.554 1.26,2.814 2.815,2.814 C -1.26,2.814 0,1.554 0,0 0,-1.554 -1.26,-2.814 -2.814,-2.814"
                    id="path49" />
            </g>
            <g transform="matrix(0,-1,-1,0,94.754,111.3047)" id="g51">
                <path
                    d="m -2.814,-2.814 c -1.555,0 -2.815,1.26 -2.815,2.814 0,1.554 1.26,2.814 2.815,2.814 C -1.26,2.814 0,1.554 0,0 0,-1.554 -1.26,-2.814 -2.814,-2.814"
                    id="path50" />
            </g>
            <g transform="matrix(0,-1,-1,0,77.6654,125.5233)" id="g52">
                <path
                    d="m -2.69,-2.69 c -1.485,0 -2.689,1.204 -2.689,2.689 0,1.486 1.204,2.691 2.689,2.691 1.485,0 2.689,-1.205 2.689,-2.691 0,-1.485 -1.204,-2.689 -2.689,-2.689"
                    id="path51" />
            </g>
            <g transform="matrix(0,-1,-1,0,135.0355,104.2742)" id="g53">
                <path
                    d="m -2.877,-2.877 c -1.589,0 -2.877,1.288 -2.877,2.877 0,1.589 1.288,2.877 2.877,2.877 C -1.288,2.877 0,1.589 0,0 0,-1.589 -1.288,-2.877 -2.877,-2.877"
                    id="path52" />
            </g>
            <g transform="matrix(0,-1,-1,0,96.1162,94.3528)" id="g54">
                <path
                    d="m -3.69,-3.69 c -2.038,0 -3.69,1.652 -3.69,3.69 0,2.038 1.652,3.69 3.69,3.69 C -1.652,3.69 0,2.038 0,0 0,-2.038 -1.652,-3.69 -3.69,-3.69"
                    id="path53" />
            </g>
            <g transform="matrix(0,-1,-1,0,107.6176,80.3381)" id="g55">
                <path
                    d="m -3.064,-3.064 c -1.694,0 -3.066,1.372 -3.066,3.065 0,1.691 1.372,3.063 3.066,3.063 1.693,0 3.065,-1.372 3.065,-3.063 0,-1.693 -1.372,-3.065 -3.065,-3.065"
                    id="path54" />
            </g>
            <g transform="matrix(0,-1,-1,0,87.8437,103.7667)" id="g56">
                <path
                    d="m -1.939,-1.939 c -1.071,0 -1.939,0.868 -1.939,1.939 0,1.071 0.868,1.939 1.939,1.939 C -0.868,1.939 0,1.071 0,0 0,-1.071 -0.868,-1.939 -1.939,-1.939"
                    id="path55" />
            </g>
            <g transform="matrix(0,-1,-1,0,103.5592,103.9037)" id="g57">
                <path
                    d="m -2.377,-2.377 c -1.312,0 -2.376,1.065 -2.376,2.377 0,1.312 1.064,2.377 2.376,2.377 C -1.064,2.377 0,1.312 0,0 0,-1.312 -1.064,-2.377 -2.377,-2.377"
                    id="path56" />
            </g>
            <g transform="matrix(0,-1,-1,0,129.6056,94.9734)" id="g58">
                <path
                    d="m -2.064,-2.064 c -1.14,0 -2.064,0.924 -2.064,2.064 0,1.14 0.924,2.064 2.064,2.064 C -0.924,2.064 0,1.14 0,0 0,-1.14 -0.924,-2.064 -2.064,-2.064"
                    id="path57" />
            </g>
            <g transform="matrix(0,-1,-1,0,117.6804,84.6467)" id="g59">
                <path
                    d="m -2.314,-2.314 c -1.278,0 -2.314,1.036 -2.314,2.314 0,1.278 1.036,2.314 2.314,2.314 C -1.036,2.314 0,1.278 0,0 0,-1.278 -1.036,-2.314 -2.314,-2.314"
                    id="path58" />
            </g>
            <g transform="matrix(0,-1,-1,0,112.1576,120.0099)" id="g60">
                <path
                    d="m -3.19,-3.19 c -1.762,0 -3.19,1.428 -3.19,3.19 0,1.761 1.428,3.19 3.19,3.19 C -1.428,3.19 0,1.761 0,0 0,-1.762 -1.428,-3.19 -3.19,-3.19"
                    id="path59" />
            </g>
            <g transform="matrix(0,-1,-1,0,102.3542,123.7209)" id="g61">
                <path
                    d="m -1.814,-1.814 c -1.002,0 -1.814,0.812 -1.814,1.814 0,1.002 0.812,1.814 1.814,1.814 C -0.812,1.814 0,1.002 0,0 0,-1.002 -0.812,-1.814 -1.814,-1.814"
                    id="path60" />
            </g>
            <g transform="matrix(0,-1,-1,0,129.2535,128.9703)" id="g62">
                <path
                    d="m -1.438,-1.438 c -0.794,0 -1.439,0.644 -1.439,1.438 0,0.795 0.645,1.438 1.439,1.438 C -0.644,1.438 0,0.795 0,0 0,-0.794 -0.644,-1.438 -1.438,-1.438"
                    id="path61" />
            </g>
            <g transform="matrix(0,-1,-1,0,121.6276,130.3116)" id="g63">
                <path
                    d="m -2.127,-2.127 c -1.174,0 -2.127,0.952 -2.127,2.128 0,1.173 0.953,2.126 2.127,2.126 1.175,0 2.128,-0.953 2.128,-2.126 0,-1.176 -0.953,-2.128 -2.128,-2.128"
                    id="path62" />
            </g>
            <g transform="translate(107.6869,185.8129)" id="g64">
                <path
                    d="m 0,-140.556 0.973,0.061 c 9.305,0.965 18.171,3.744 26.348,8.276 7.888,4.373 14.914,10.065 20.644,17.124 5.731,7.058 9.942,15.174 12.602,23.795 2.757,8.935 3.585,18.133 2.62,27.441 -0.965,9.309 -3.752,18.176 -8.283,26.356 -4.372,7.891 -10.167,14.8 -17.223,20.533 -7.057,5.733 -15.004,9.989 -23.622,12.651 -6.629,2.047 -13.484,3.01 -20.355,3.01 -2.387,0 -4.792,-0.085 -7.191,-0.334 -9.305,-0.965 -18.107,-3.724 -26.283,-8.257 -7.889,-4.373 -14.909,-9.999 -20.64,-17.057 -5.73,-7.059 -10.016,-15.064 -12.675,-23.684 -2.757,-8.936 -3.671,-18.416 -2.706,-27.724 1.666,-16.065 8.747,-31.097 20.56,-42.389 l 0.726,-0.67 1.348,1.466 c -0.443,0.377 -0.904,0.833 -1.376,1.337 -10.755,10.934 -17.562,25.28 -19.145,40.552 -3.856,37.192 23.518,70.549 59.895,74.239 37.757,3.83 70.808,-22.802 74.906,-60.154 3.972,-36.2 -22.183,-69.956 -59.339,-74.351 -0.675,-0.077 -1.328,-0.193 -1.937,-0.192 z"
                    id="path63" />
            </g>
            <g transform="translate(81.7098,70.731)" id="g65">
                <path
                    d="m 0,1.469 c -1.433,2.341 -5.165,8.921 -10.563,15.696 -4.053,5.087 -9.142,10.304 -14.529,14.14 -4.113,2.929 -8.504,5.346 -12.361,6.579 -5.897,1.885 -10.721,1.529 -10.721,1.529 0,0 -4.781,-16.512 -2.029,-30.8 1.49,-7.739 4.455,-14.164 6.699,-17.679 2.308,-3.614 4.652,-6.218 6.116,-7.756 1.828,-1.921 5.498,-5.181 10.368,-8.312 3.054,-1.962 6.569,-3.822 10.429,-5.431 2.546,-1.062 5.149,-2.104 7.807,-2.936 5.416,-1.694 10.798,-2.917 15.103,-3.595 5.206,-0.82 8.803,-0.964 8.803,-0.964 0,0 0.151,1.737 -0.139,4.253 -0.156,1.354 -0.539,2.86 -0.917,4.606 -0.583,2.691 -1.595,5.546 -2.854,8.673 C 7.61,-11.582 4.598,-6.043 0,1.469 m 16.762,-41.78 c -5.949,0.213 -13.013,1.3 -20.376,3.141 -6.795,1.699 -13.533,4.165 -19.931,7.589 -6.584,3.523 -12.839,8.03 -17.79,13.871 -8.245,9.725 -12.704,22.535 -11.775,38.792 0.325,5.665 1.232,11.775 3.13,18.294 0.545,-0.035 0.709,0.083 1.245,0.138 2.576,0.266 6.324,-0.058 10.34,-1.158 2.538,-0.696 5.154,-1.717 7.743,-3.046 5.472,-4.29 16.419,-12.695 16.419,-12.695 0,0 2.91,-2.867 7.524,-8.951 3.929,-5.178 8.627,-12.749 13.547,-21.737 4.467,-8.159 6.903,-14.759 8.645,-20.339 2.335,-7.478 1.928,-12.38 1.279,-13.899"
                    id="path64" />
            </g>
        </g>
        <!-- <g>
            <g transform="matrix(-1,0,0,1,362.963,-2.334)" id="g66">
                <rect x="180.963" y="32.667" width="1.0369999" height="149" id="rect65" />
            </g>
        </g> -->
    </g>
    <g class="part-secondary" id="g72" transform="translate(-28.47862,-30.333)">

        <g transform="translate(6.5072)" id="g71">
            <g transform="matrix(56,0,0,56,187.31,125.481)" id="g67">
                <path d="m 0.563,-0.7 v 0.141 H 0.368 V 0 H 0.216 V -0.559 H 0.022 V -0.7 Z" id="path66" />
            </g>
            <g transform="matrix(56,0,0,56,219.874,125.481)" id="g68">
                <path
                    d="m 0.594,-0.272 c 0,0.014 -0.001,0.028 -0.003,0.043 H 0.183 c 0.006,0.037 0.021,0.065 0.044,0.085 0.023,0.019 0.052,0.029 0.088,0.029 0.025,0 0.047,-0.006 0.067,-0.017 0.02,-0.01 0.036,-0.026 0.047,-0.045 h 0.154 c -0.02,0.059 -0.054,0.105 -0.102,0.14 -0.048,0.035 -0.103,0.052 -0.166,0.052 -0.08,0 -0.147,-0.027 -0.2,-0.082 -0.053,-0.055 -0.08,-0.122 -0.08,-0.203 0,-0.032 0.005,-0.063 0.014,-0.092 0.008,-0.029 0.022,-0.056 0.039,-0.079 0.016,-0.023 0.036,-0.043 0.059,-0.061 0.023,-0.017 0.048,-0.03 0.077,-0.039 0.029,-0.009 0.059,-0.014 0.091,-0.014 0.054,0 0.102,0.013 0.146,0.038 0.042,0.025 0.076,0.06 0.098,0.103 0.024,0.043 0.035,0.091 0.035,0.142 z M 0.315,-0.431 c -0.033,0 -0.06,0.009 -0.082,0.027 -0.023,0.018 -0.038,0.043 -0.046,0.075 H 0.448 C 0.441,-0.351 0.432,-0.369 0.419,-0.385 0.406,-0.4 0.391,-0.411 0.373,-0.419 0.356,-0.427 0.336,-0.431 0.315,-0.431 Z"
                    id="path67" />
            </g>
            <g transform="matrix(56,0,0,56,259.046,125.481)" id="g69">
                <path d="m 0.07,-0.612 v -0.136 h 0.146 v 0.136 z M 0.07,0 V -0.54 H 0.216 V 0 Z" id="path68" />
            </g>
            <g transform="matrix(56,0,0,56,279.066,125.481)" id="g70">
                <path
                    d="M 0.511,-0.541 H 0.62 v 0.54 H 0.505 L 0.493,-0.049 C 0.444,-0.006 0.385,0.015 0.318,0.015 0.237,0.015 0.169,-0.012 0.116,-0.067 0.062,-0.121 0.035,-0.189 0.035,-0.271 c 0,-0.081 0.027,-0.149 0.081,-0.203 0.053,-0.054 0.121,-0.081 0.202,-0.081 0.069,0 0.128,0.022 0.177,0.066 z m -0.286,0.376 c 0.027,0.028 0.062,0.042 0.105,0.042 0.042,0 0.077,-0.014 0.105,-0.042 0.028,-0.028 0.042,-0.063 0.042,-0.106 0,-0.043 -0.014,-0.078 -0.042,-0.106 -0.028,-0.028 -0.063,-0.042 -0.105,-0.042 -0.028,0 -0.053,0.006 -0.075,0.019 -0.023,0.013 -0.04,0.031 -0.053,0.053 -0.013,0.023 -0.019,0.048 -0.019,0.076 0,0.043 0.014,0.078 0.042,0.106 z"
                    id="path69" />
            </g>
        </g>
    </g>
</svg>